<svg version="1.1" xmlns="http://www.w3.org/2000/svg" xmlns:xlink="http://www.w3.org/1999/xlink" width="2453" height="580"><defs/><g><g><rect fill="#C0C0C0" stroke="none" x="2263" y="2919" width="96" height="15" transform="matrix(1 0 0 1 -1166 -2478)" fill-opacity="0.2"/></g><g><rect fill="#C0C0C0" stroke="none" x="2263" y="2933" width="240" height="122" transform="matrix(1 0 0 1 -1166 -2478)" fill-opacity="0.2"/></g><g><rect fill="#ffffff" stroke="none" x="2256" y="2927" width="240" height="121" transform="matrix(1 0 0 1 -1166 -2478)"/></g><g><path fill="none" stroke="#000000" paint-order="fill stroke markers" d=" M 1090 449 L 1330 449 L 1330 570 L 1090 570 L 1090 449 Z Z" stroke-miterlimit="10" stroke-dasharray=""/></g><g><rect fill="#ffffff" stroke="none" x="2256" y="2912" width="96" height="15" transform="matrix(1 0 0 1 -1166 -2478)"/></g><g><path fill="none" stroke="#000000" paint-order="fill stroke markers" d=" M 1090 434 L 1186 434 L 1186 449 L 1090 449 L 1090 434 Z Z" stroke-miterlimit="10" stroke-dasharray=""/></g><g><rect fill="#ffffff" stroke="none" x="2256" y="2926" width="240" height="122" transform="matrix(1 0 0 1 -1166 -2478)"/></g><g><path fill="none" stroke="#000000" paint-order="fill stroke markers" d=" M 1090 448 L 1330 448 L 1330 570 L 1090 570 L 1090 448 Z Z" stroke-miterlimit="10" stroke-dasharray=""/></g><g><g><path fill="none" stroke="none"/><text fill="#000000" stroke="none" font-family="Arial" font-size="13px" font-style="normal" font-weight="bold" text-decoration="undefined" x="2376.5" y="2940.5" text-anchor="middle" dominant-baseline="central" transform="matrix(1 0 0 1 -1166 -2478)">Composition Root</text></g></g><g><rect fill="#C0C0C0" stroke="none" x="2307" y="2967" width="151.59716796875" height="60" transform="matrix(1 0 0 1 -1166 -2478)" fill-opacity="0.2"/></g><g><rect fill="#ffffff" stroke="none" x="2300" y="2960" width="151.59716796875" height="60" transform="matrix(1 0 0 1 -1166 -2478)"/></g><g><path fill="none" stroke="#000000" paint-order="fill stroke markers" d=" M 1134 482 L 1285.59716796875 482 L 1285.59716796875 542 L 1134 542 L 1134 482 Z Z" stroke-miterlimit="10" stroke-dasharray=""/></g><g><path fill="none" stroke="#000000" paint-order="fill stroke markers" d=" M 1134 522 L 1285.59716796875 522" stroke-miterlimit="10" stroke-dasharray=""/></g><g><path fill="none" stroke="#000000" paint-order="fill stroke markers" d=" M 1134 532 L 1285.59716796875 532" stroke-miterlimit="10" stroke-dasharray=""/></g><g><g><path fill="none" stroke="none"/><text fill="#000000" stroke="none" font-family="Arial" font-size="13px" font-style="normal" font-weight="bold" text-decoration="undefined" x="2376.298583984375" y="2973.5" text-anchor="middle" dominant-baseline="central" transform="matrix(1 0 0 1 -1166 -2478)">Extension</text></g></g><g><g><path fill="none" stroke="none"/><text fill="#000000" stroke="none" font-family="Arial" font-size="13px" font-style="normal" font-weight="normal" text-decoration="undefined" x="2376.298583984375" y="2988.5" text-anchor="middle" dominant-baseline="central" transform="matrix(1 0 0 1 -1166 -2478)">(from Composition Root)</text></g></g><g><rect fill="#C0C0C0" stroke="none" x="1383" y="2495" width="806.4000000000001" height="15" transform="matrix(1 0 0 1 -1166 -2478)" fill-opacity="0.2"/></g><g><rect fill="#C0C0C0" stroke="none" x="1383" y="2509" width="2016" height="90" transform="matrix(1 0 0 1 -1166 -2478)" fill-opacity="0.2"/></g><g><rect fill="#ffffff" stroke="none" x="1376" y="2503" width="2016" height="89" transform="matrix(1 0 0 1 -1166 -2478)"/></g><g><path fill="none" stroke="#000000" paint-order="fill stroke markers" d=" M 210 25 L 2226 25 L 2226 114 L 210 114 L 210 25 Z Z" stroke-miterlimit="10" stroke-dasharray=""/></g><g><rect fill="#ffffff" stroke="none" x="1376" y="2488" width="806.4000000000001" height="15" transform="matrix(1 0 0 1 -1166 -2478)"/></g><g><path fill="none" stroke="#000000" paint-order="fill stroke markers" d=" M 210 10 L 1016.4000000000001 10 L 1016.4000000000001 25 L 210 25 L 210 10 Z Z" stroke-miterlimit="10" stroke-dasharray=""/></g><g><rect fill="#ffffff" stroke="none" x="1376" y="2502" width="2016" height="90" transform="matrix(1 0 0 1 -1166 -2478)"/></g><g><path fill="none" stroke="#000000" paint-order="fill stroke markers" d=" M 210 24 L 2226 24 L 2226 114 L 210 114 L 210 24 Z Z" stroke-miterlimit="10" stroke-dasharray=""/></g><g><g><path fill="none" stroke="none"/><text fill="#000000" stroke="none" font-family="Arial" font-size="13px" font-style="normal" font-weight="bold" text-decoration="undefined" x="2384.5" y="2516.5" text-anchor="middle" dominant-baseline="central" transform="matrix(1 0 0 1 -1166 -2478)">Core</text></g></g><g><path fill="#C0C0C0" stroke="none" paint-order="stroke fill markers" d=" M 724.408203125 65 C 724.408203125 58.37258239999983 729.780785525 53 736.408203125 53 C 743.035620725 53 748.408203125 58.37258239999983 748.408203125 65 C 748.408203125 71.62741760000017 743.035620725 77 736.408203125 77 C 729.780785525 77 724.408203125 71.62741760000017 724.408203125 65 Z" fill-opacity="0.2"/></g><g><path fill="#ffffff" stroke="none" paint-order="stroke fill markers" d=" M 717.408203125 58 C 717.408203125 51.37258239999983 722.780785525 46 729.408203125 46 C 736.035620725 46 741.408203125 51.37258239999983 741.408203125 58 C 741.408203125 64.62741760000017 736.035620725 70 729.408203125 70 C 722.780785525 70 717.408203125 64.62741760000017 717.408203125 58 Z"/></g><g><path fill="none" stroke="#000000" paint-order="fill stroke markers" d=" M 717.408203125 58 C 717.408203125 51.37258239999983 722.780785525 46 729.408203125 46 C 736.035620725 46 741.408203125 51.37258239999983 741.408203125 58 C 741.408203125 64.62741760000017 736.035620725 70 729.408203125 70 C 722.780785525 70 717.408203125 64.62741760000017 717.408203125 58 Z" stroke-miterlimit="10" stroke-dasharray=""/></g><g><g><path fill="none" stroke="none"/><text fill="#000000" stroke="none" font-family="Arial" font-size="13px" font-style="normal" font-weight="bold" text-decoration="undefined" x="1895.908203125" y="2561.5" text-anchor="middle" dominant-baseline="central" transform="matrix(1 0 0 1 -1166 -2478)">IConfiguration</text></g></g><g><g><path fill="none" stroke="none"/><text fill="#000000" stroke="none" font-family="Arial" font-size="13px" font-style="normal" font-weight="normal" text-decoration="undefined" x="1895.908203125" y="2576.5" text-anchor="middle" dominant-baseline="central" transform="matrix(1 0 0 1 -1166 -2478)">(from Core)</text></g></g><g><path fill="#C0C0C0" stroke="none" paint-order="stroke fill markers" d=" M 1480.4072265625 65 C 1480.4072265625 58.37258239999983 1485.7798089624998 53 1492.4072265625 53 C 1499.0346441625002 53 1504.4072265625 58.37258239999983 1504.4072265625 65 C 1504.4072265625 71.62741760000017 1499.0346441625002 77 1492.4072265625 77 C 1485.7798089624998 77 1480.4072265625 71.62741760000017 1480.4072265625 65 Z" fill-opacity="0.2"/></g><g><path fill="#ffffff" stroke="none" paint-order="stroke fill markers" d=" M 1473.4072265625 58 C 1473.4072265625 51.37258239999983 1478.7798089624998 46 1485.4072265625 46 C 1492.0346441625002 46 1497.4072265625 51.37258239999983 1497.4072265625 58 C 1497.4072265625 64.62741760000017 1492.0346441625002 70 1485.4072265625 70 C 1478.7798089624998 70 1473.4072265625 64.62741760000017 1473.4072265625 58 Z"/></g><g><path fill="none" stroke="#000000" paint-order="fill stroke markers" d=" M 1473.4072265625 58 C 1473.4072265625 51.37258239999983 1478.7798089624998 46 1485.4072265625 46 C 1492.0346441625002 46 1497.4072265625 51.37258239999983 1497.4072265625 58 C 1497.4072265625 64.62741760000017 1492.0346441625002 70 1485.4072265625 70 C 1478.7798089624998 70 1473.4072265625 64.62741760000017 1473.4072265625 58 Z" stroke-miterlimit="10" stroke-dasharray=""/></g><g><g><path fill="none" stroke="none"/><text fill="#000000" stroke="none" font-family="Arial" font-size="13px" font-style="normal" font-weight="bold" text-decoration="undefined" x="2651.9072265625" y="2561.5" text-anchor="middle" dominant-baseline="central" transform="matrix(1 0 0 1 -1166 -2478)">IFileReaderService</text></g></g><g><g><path fill="none" stroke="none"/><text fill="#000000" stroke="none" font-family="Arial" font-size="13px" font-style="normal" font-weight="normal" text-decoration="undefined" x="2651.9072265625" y="2576.5" text-anchor="middle" dominant-baseline="central" transform="matrix(1 0 0 1 -1166 -2478)">(from Core)</text></g></g><g><path fill="#C0C0C0" stroke="none" paint-order="stroke fill markers" d=" M 1031.134033203125 65 C 1031.134033203125 58.37258239999983 1036.5066156031248 53 1043.134033203125 53 C 1049.7614508031252 53 1055.134033203125 58.37258239999983 1055.134033203125 65 C 1055.134033203125 71.62741760000017 1049.7614508031252 77 1043.134033203125 77 C 1036.5066156031248 77 1031.134033203125 71.62741760000017 1031.134033203125 65 Z" fill-opacity="0.2"/></g><g><path fill="#ffffff" stroke="none" paint-order="stroke fill markers" d=" M 1024.134033203125 58 C 1024.134033203125 51.37258239999983 1029.5066156031248 46 1036.134033203125 46 C 1042.7614508031252 46 1048.134033203125 51.37258239999983 1048.134033203125 58 C 1048.134033203125 64.62741760000017 1042.7614508031252 70 1036.134033203125 70 C 1029.5066156031248 70 1024.134033203125 64.62741760000017 1024.134033203125 58 Z"/></g><g><path fill="none" stroke="#000000" paint-order="fill stroke markers" d=" M 1024.134033203125 58 C 1024.134033203125 51.37258239999983 1029.5066156031248 46 1036.134033203125 46 C 1042.7614508031252 46 1048.134033203125 51.37258239999983 1048.134033203125 58 C 1048.134033203125 64.62741760000017 1042.7614508031252 70 1036.134033203125 70 C 1029.5066156031248 70 1024.134033203125 64.62741760000017 1024.134033203125 58 Z" stroke-miterlimit="10" stroke-dasharray=""/></g><g><g><path fill="none" stroke="none"/><text fill="#000000" stroke="none" font-family="Arial" font-size="13px" font-style="normal" font-weight="bold" text-decoration="undefined" x="2202.634033203125" y="2561.5" text-anchor="middle" dominant-baseline="central" transform="matrix(1 0 0 1 -1166 -2478)">IParseCodeService</text></g></g><g><g><path fill="none" stroke="none"/><text fill="#000000" stroke="none" font-family="Arial" font-size="13px" font-style="normal" font-weight="normal" text-decoration="undefined" x="2202.634033203125" y="2576.5" text-anchor="middle" dominant-baseline="central" transform="matrix(1 0 0 1 -1166 -2478)">(from Core)</text></g></g><g><path fill="#C0C0C0" stroke="none" paint-order="stroke fill markers" d=" M 304.80908203125 65 C 304.80908203125 58.37258239999983 310.18166443125006 53 316.80908203125 53 C 323.43649963124994 53 328.80908203125 58.37258239999983 328.80908203125 65 C 328.80908203125 71.62741760000017 323.43649963124994 77 316.80908203125 77 C 310.18166443125006 77 304.80908203125 71.62741760000017 304.80908203125 65 Z" fill-opacity="0.2"/></g><g><path fill="#ffffff" stroke="none" paint-order="stroke fill markers" d=" M 297.80908203125 58 C 297.80908203125 51.37258239999983 303.18166443125006 46 309.80908203125 46 C 316.43649963124994 46 321.80908203125 51.37258239999983 321.80908203125 58 C 321.80908203125 64.62741760000017 316.43649963124994 70 309.80908203125 70 C 303.18166443125006 70 297.80908203125 64.62741760000017 297.80908203125 58 Z"/></g><g><path fill="none" stroke="#000000" paint-order="fill stroke markers" d=" M 297.80908203125 58 C 297.80908203125 51.37258239999983 303.18166443125006 46 309.80908203125 46 C 316.43649963124994 46 321.80908203125 51.37258239999983 321.80908203125 58 C 321.80908203125 64.62741760000017 316.43649963124994 70 309.80908203125 70 C 303.18166443125006 70 297.80908203125 64.62741760000017 297.80908203125 58 Z" stroke-miterlimit="10" stroke-dasharray=""/></g><g><g><path fill="none" stroke="none"/><text fill="#000000" stroke="none" font-family="Arial" font-size="13px" font-style="normal" font-weight="bold" text-decoration="undefined" x="1476.30908203125" y="2561.5" text-anchor="middle" dominant-baseline="central" transform="matrix(1 0 0 1 -1166 -2478)">ICsvService</text></g></g><g><g><path fill="none" stroke="none"/><text fill="#000000" stroke="none" font-family="Arial" font-size="13px" font-style="normal" font-weight="normal" text-decoration="undefined" x="1476.30908203125" y="2576.5" text-anchor="middle" dominant-baseline="central" transform="matrix(1 0 0 1 -1166 -2478)">(from Core)</text></g></g><g><path fill="#C0C0C0" stroke="none" paint-order="stroke fill markers" d=" M 2088.47265625 65 C 2088.47265625 58.37258239999983 2093.84523865 53 2100.47265625 53 C 2107.10007385 53 2112.47265625 58.37258239999983 2112.47265625 65 C 2112.47265625 71.62741760000017 2107.10007385 77 2100.47265625 77 C 2093.84523865 77 2088.47265625 71.62741760000017 2088.47265625 65 Z" fill-opacity="0.2"/></g><g><path fill="#ffffff" stroke="none" paint-order="stroke fill markers" d=" M 2081.47265625 58 C 2081.47265625 51.37258239999983 2086.84523865 46 2093.47265625 46 C 2100.10007385 46 2105.47265625 51.37258239999983 2105.47265625 58 C 2105.47265625 64.62741760000017 2100.10007385 70 2093.47265625 70 C 2086.84523865 70 2081.47265625 64.62741760000017 2081.47265625 58 Z"/></g><g><path fill="none" stroke="#000000" paint-order="fill stroke markers" d=" M 2081.47265625 58 C 2081.47265625 51.37258239999983 2086.84523865 46 2093.47265625 46 C 2100.10007385 46 2105.47265625 51.37258239999983 2105.47265625 58 C 2105.47265625 64.62741760000017 2100.10007385 70 2093.47265625 70 C 2086.84523865 70 2081.47265625 64.62741760000017 2081.47265625 58 Z" stroke-miterlimit="10" stroke-dasharray=""/></g><g><g><path fill="none" stroke="none"/><text fill="#000000" stroke="none" font-family="Arial" font-size="13px" font-style="normal" font-weight="bold" text-decoration="undefined" x="3259.97265625" y="2561.5" text-anchor="middle" dominant-baseline="central" transform="matrix(1 0 0 1 -1166 -2478)">IRequirementsApiService</text></g></g><g><g><path fill="none" stroke="none"/><text fill="#000000" stroke="none" font-family="Arial" font-size="13px" font-style="normal" font-weight="normal" text-decoration="undefined" x="3259.97265625" y="2576.5" text-anchor="middle" dominant-baseline="central" transform="matrix(1 0 0 1 -1166 -2478)">(from Core)</text></g></g><g><rect fill="#C0C0C0" stroke="none" x="1183" y="2623" width="972.8000000000002" height="15" transform="matrix(1 0 0 1 -1166 -2478)" fill-opacity="0.2"/></g><g><rect fill="#C0C0C0" stroke="none" x="1183" y="2637" width="2432" height="202" transform="matrix(1 0 0 1 -1166 -2478)" fill-opacity="0.2"/></g><g><rect fill="#ffffff" stroke="none" x="1176" y="2631" width="2432" height="201" transform="matrix(1 0 0 1 -1166 -2478)"/></g><g><path fill="none" stroke="#000000" paint-order="fill stroke markers" d=" M 10 153 L 2442 153 L 2442 354 L 10 354 L 10 153 Z Z" stroke-miterlimit="10" stroke-dasharray=""/></g><g><rect fill="#ffffff" stroke="none" x="1176" y="2616" width="972.8000000000002" height="15" transform="matrix(1 0 0 1 -1166 -2478)"/></g><g><path fill="none" stroke="#000000" paint-order="fill stroke markers" d=" M 10 138 L 982.8000000000002 138 L 982.8000000000002 153 L 10 153 L 10 138 Z Z" stroke-miterlimit="10" stroke-dasharray=""/></g><g><rect fill="#ffffff" stroke="none" x="1176" y="2630" width="2432" height="202" transform="matrix(1 0 0 1 -1166 -2478)"/></g><g><path fill="none" stroke="#000000" paint-order="fill stroke markers" d=" M 10 152 L 2442 152 L 2442 354 L 10 354 L 10 152 Z Z" stroke-miterlimit="10" stroke-dasharray=""/></g><g><g><path fill="none" stroke="none"/><text fill="#000000" stroke="none" font-family="Arial" font-size="13px" font-style="normal" font-weight="bold" text-decoration="undefined" x="2392.5" y="2644.5" text-anchor="middle" dominant-baseline="central" transform="matrix(1 0 0 1 -1166 -2478)">Infrastructure</text></g></g><g><path fill="none" stroke="#000000" paint-order="fill stroke markers" d=" M 1178 482 L 1178 402 L 730 402 L 730 315" stroke-miterlimit="10" stroke-dasharray="3"/></g><g><path fill="none" stroke="#000000" paint-order="fill stroke markers" d=" M 734.2095177560159 325.1626748576241 L 730 315 L 725.7904822439841 325.1626748576241" stroke-miterlimit="10" stroke-dasharray=""/></g><g><path fill="none" stroke="#000000" paint-order="fill stroke markers" d=" M 1146 482 L 1146 418 L 306 418 L 306 323" stroke-miterlimit="10" stroke-dasharray="3"/></g><g><path fill="none" stroke="#000000" paint-order="fill stroke markers" d=" M 310.2095177560159 333.1626748576241 L 306 323 L 301.7904822439841 333.1626748576241" stroke-miterlimit="10" stroke-dasharray=""/></g><g><path fill="none" stroke="#000000" paint-order="fill stroke markers" d=" M 1210 482 L 1210 386 L 1034 386 L 1034 322" stroke-miterlimit="10" stroke-dasharray="3"/></g><g><path fill="none" stroke="#000000" paint-order="fill stroke markers" d=" M 1038.2095177560159 332.1626748576241 L 1034 322 L 1029.7904822439841 332.1626748576241" stroke-miterlimit="10" stroke-dasharray=""/></g><g><path fill="none" stroke="#000000" paint-order="fill stroke markers" d=" M 1242 482 L 1242 386 L 1482 386 L 1482 329" stroke-miterlimit="10" stroke-dasharray="3"/></g><g><path fill="none" stroke="#000000" paint-order="fill stroke markers" d=" M 1486.2095177560159 339.1626748576241 L 1482 329 L 1477.7904822439841 339.1626748576241" stroke-miterlimit="10" stroke-dasharray=""/></g><g><path fill="none" stroke="#000000" paint-order="fill stroke markers" d=" M 1274 482 L 1274 402 L 2090 402 L 2090 322" stroke-miterlimit="10" stroke-dasharray="3"/></g><g><path fill="none" stroke="#000000" paint-order="fill stroke markers" d=" M 2094.209517756016 332.1626748576241 L 2090 322 L 2085.790482243984 332.1626748576241" stroke-miterlimit="10" stroke-dasharray=""/></g><g><path fill="none" stroke="#000000" paint-order="fill stroke markers" d=" M 728 211 L 729 70" stroke-miterlimit="10" stroke-dasharray=""/></g><g><path fill="none" stroke="#000000" paint-order="fill stroke markers" d=" M 309 204 L 309 70" stroke-miterlimit="10" stroke-dasharray=""/></g><g><path fill="none" stroke="#000000" paint-order="fill stroke markers" d=" M 1035 205 L 1036 70" stroke-miterlimit="10" stroke-dasharray=""/></g><g><path fill="none" stroke="#000000" paint-order="fill stroke markers" d=" M 1484 197 L 1485 70" stroke-miterlimit="10" stroke-dasharray=""/></g><g><path fill="none" stroke="#000000" paint-order="fill stroke markers" d=" M 2093 205 L 2093 70" stroke-miterlimit="10" stroke-dasharray=""/></g><g><rect fill="#C0C0C0" stroke="none" x="2943" y="2691" width="646.23828125" height="116" transform="matrix(1 0 0 1 -1166 -2478)" fill-opacity="0.2"/></g><g><rect fill="#ffffff" stroke="none" x="2936" y="2684" width="646.23828125" height="116" transform="matrix(1 0 0 1 -1166 -2478)"/></g><g><path fill="none" stroke="#000000" paint-order="fill stroke markers" d=" M 1770 206 L 2416.23828125 206 L 2416.23828125 322 L 1770 322 L 1770 206 Z Z" stroke-miterlimit="10" stroke-dasharray=""/></g><g><path fill="none" stroke="#000000" paint-order="fill stroke markers" d=" M 1770 246 L 2416.23828125 246" stroke-miterlimit="10" stroke-dasharray=""/></g><g><path fill="none" stroke="#000000" paint-order="fill stroke markers" d=" M 1770 269 L 2416.23828125 269" stroke-miterlimit="10" stroke-dasharray=""/></g><g><g><path fill="none" stroke="none"/><text fill="#000000" stroke="none" font-family="Arial" font-size="13px" font-style="normal" font-weight="bold" text-decoration="undefined" x="3259.619140625" y="2697.5" text-anchor="middle" dominant-baseline="central" transform="matrix(1 0 0 1 -1166 -2478)">RequirementsApiService</text></g></g><g><g><path fill="none" stroke="none"/><text fill="#000000" stroke="none" font-family="Arial" font-size="13px" font-style="normal" font-weight="normal" text-decoration="undefined" x="3259.619140625" y="2712.5" text-anchor="middle" dominant-baseline="central" transform="matrix(1 0 0 1 -1166 -2478)">(from Infrastructure)</text></g></g><g><g><path fill="none" stroke="none"/><text fill="#000000" stroke="none" font-family="Arial" font-size="13px" font-style="normal" font-weight="normal" text-decoration="undefined" x="2941" y="2735.5" text-anchor="start" dominant-baseline="central" transform="matrix(1 0 0 1 -1166 -2478)">-baseUrl: string</text></g></g><g><g><path fill="none" stroke="none"/><text fill="#000000" stroke="none" font-family="Arial" font-size="13px" font-style="normal" font-weight="normal" text-decoration="undefined" x="2941" y="2758.5" text-anchor="start" dominant-baseline="central" transform="matrix(1 0 0 1 -1166 -2478)">+getEmbedding(model: string, text: string): Promise&lt;number[]&gt;</text></g></g><g><g><path fill="none" stroke="none"/><text fill="#000000" stroke="none" font-family="Arial" font-size="13px" font-style="normal" font-weight="normal" text-decoration="undefined" x="2941" y="2773.5" text-anchor="start" dominant-baseline="central" transform="matrix(1 0 0 1 -1166 -2478)">+analyzeRequirement(requestData: RequirementAnalysisRequest): Promise&lt;RequirementAnalysisResponse&gt;</text></g></g><g><g><path fill="none" stroke="none"/><text fill="#000000" stroke="none" font-family="Arial" font-size="13px" font-style="normal" font-weight="normal" text-decoration="undefined" x="2941" y="2788.5" text-anchor="start" dominant-baseline="central" transform="matrix(1 0 0 1 -1166 -2478)">-handleApiError(error: any, message: string): never</text></g></g><g><rect fill="#C0C0C0" stroke="none" x="1798" y="2697" width="207.62158203125" height="103" transform="matrix(1 0 0 1 -1166 -2478)" fill-opacity="0.2"/></g><g><rect fill="#ffffff" stroke="none" x="1791" y="2690" width="207.62158203125" height="103" transform="matrix(1 0 0 1 -1166 -2478)"/></g><g><path fill="none" stroke="#000000" paint-order="fill stroke markers" d=" M 625 212 L 832.62158203125 212 L 832.62158203125 315 L 625 315 L 625 212 Z Z" stroke-miterlimit="10" stroke-dasharray=""/></g><g><path fill="none" stroke="#000000" paint-order="fill stroke markers" d=" M 625 252 L 832.62158203125 252" stroke-miterlimit="10" stroke-dasharray=""/></g><g><path fill="none" stroke="#000000" paint-order="fill stroke markers" d=" M 625 262 L 832.62158203125 262" stroke-miterlimit="10" stroke-dasharray=""/></g><g><g><path fill="none" stroke="none"/><text fill="#000000" stroke="none" font-family="Arial" font-size="13px" font-style="normal" font-weight="bold" text-decoration="undefined" x="1895.310791015625" y="2703.5" text-anchor="middle" dominant-baseline="central" transform="matrix(1 0 0 1 -1166 -2478)">VSCodeConfiguration</text></g></g><g><g><path fill="none" stroke="none"/><text fill="#000000" stroke="none" font-family="Arial" font-size="13px" font-style="normal" font-weight="normal" text-decoration="undefined" x="1895.310791015625" y="2718.5" text-anchor="middle" dominant-baseline="central" transform="matrix(1 0 0 1 -1166 -2478)">(from Infrastructure)</text></g></g><g><g><path fill="none" stroke="none"/><text fill="#000000" stroke="none" font-family="Arial" font-size="13px" font-style="normal" font-weight="normal" text-decoration="undefined" x="1796" y="2751.5" text-anchor="start" dominant-baseline="central" transform="matrix(1 0 0 1 -1166 -2478)">+getRequirementModel(): string</text></g></g><g><g><path fill="none" stroke="none"/><text fill="#000000" stroke="none" font-family="Arial" font-size="13px" font-style="normal" font-weight="normal" text-decoration="undefined" x="1796" y="2766.5" text-anchor="start" dominant-baseline="central" transform="matrix(1 0 0 1 -1166 -2478)">+getCodeModel(): string</text></g></g><g><g><path fill="none" stroke="none"/><text fill="#000000" stroke="none" font-family="Arial" font-size="13px" font-style="normal" font-weight="normal" text-decoration="undefined" x="1796" y="2781.5" text-anchor="start" dominant-baseline="central" transform="matrix(1 0 0 1 -1166 -2478)">+getImplementationModel(): string</text></g></g><g><rect fill="#C0C0C0" stroke="none" x="2045" y="2691" width="327.0654296875" height="116" transform="matrix(1 0 0 1 -1166 -2478)" fill-opacity="0.2"/></g><g><rect fill="#ffffff" stroke="none" x="2038" y="2684" width="327.0654296875" height="116" transform="matrix(1 0 0 1 -1166 -2478)"/></g><g><path fill="none" stroke="#000000" paint-order="fill stroke markers" d=" M 872 206 L 1199.0654296875 206 L 1199.0654296875 322 L 872 322 L 872 206 Z Z" stroke-miterlimit="10" stroke-dasharray=""/></g><g><path fill="none" stroke="#000000" paint-order="fill stroke markers" d=" M 872 246 L 1199.0654296875 246" stroke-miterlimit="10" stroke-dasharray=""/></g><g><path fill="none" stroke="#000000" paint-order="fill stroke markers" d=" M 872 269 L 1199.0654296875 269" stroke-miterlimit="10" stroke-dasharray=""/></g><g><g><path fill="none" stroke="none"/><text fill="#000000" stroke="none" font-family="Arial" font-size="13px" font-style="normal" font-weight="bold" text-decoration="undefined" x="2202.03271484375" y="2697.5" text-anchor="middle" dominant-baseline="central" transform="matrix(1 0 0 1 -1166 -2478)">ParseCodeService</text></g></g><g><g><path fill="none" stroke="none"/><text fill="#000000" stroke="none" font-family="Arial" font-size="13px" font-style="normal" font-weight="normal" text-decoration="undefined" x="2202.03271484375" y="2712.5" text-anchor="middle" dominant-baseline="central" transform="matrix(1 0 0 1 -1166 -2478)">(from Infrastructure)</text></g></g><g><g><path fill="none" stroke="none"/><text fill="#000000" stroke="none" font-family="Arial" font-size="13px" font-style="normal" font-weight="normal" text-decoration="undefined" x="2043" y="2735.5" text-anchor="start" dominant-baseline="central" transform="matrix(1 0 0 1 -1166 -2478)">-ignoredPaths: string[]</text></g></g><g><g><path fill="none" stroke="none"/><text fill="#000000" stroke="none" font-family="Arial" font-size="13px" font-style="normal" font-weight="normal" text-decoration="undefined" x="2043" y="2758.5" text-anchor="start" dominant-baseline="central" transform="matrix(1 0 0 1 -1166 -2478)">+setIgnoredPaths(paths: string[]): void</text></g></g><g><g><path fill="none" stroke="none"/><text fill="#000000" stroke="none" font-family="Arial" font-size="13px" font-style="normal" font-weight="normal" text-decoration="undefined" x="2043" y="2773.5" text-anchor="start" dominant-baseline="central" transform="matrix(1 0 0 1 -1166 -2478)">+getIgnoredPaths(): string[]</text></g></g><g><g><path fill="none" stroke="none"/><text fill="#000000" stroke="none" font-family="Arial" font-size="13px" font-style="normal" font-weight="normal" text-decoration="undefined" x="2043" y="2788.5" text-anchor="start" dominant-baseline="central" transform="matrix(1 0 0 1 -1166 -2478)">+parseCode(traceability: Traceability): Promise&lt;string&gt;</text></g></g><g><rect fill="#C0C0C0" stroke="none" x="2411" y="2683" width="493.03759765625" height="131" transform="matrix(1 0 0 1 -1166 -2478)" fill-opacity="0.2"/></g><g><rect fill="#ffffff" stroke="none" x="2404" y="2676" width="493.03759765625" height="131" transform="matrix(1 0 0 1 -1166 -2478)"/></g><g><path fill="none" stroke="#000000" paint-order="fill stroke markers" d=" M 1238 198 L 1731.03759765625 198 L 1731.03759765625 329 L 1238 329 L 1238 198 Z Z" stroke-miterlimit="10" stroke-dasharray=""/></g><g><path fill="none" stroke="#000000" paint-order="fill stroke markers" d=" M 1238 238 L 1731.03759765625 238" stroke-miterlimit="10" stroke-dasharray=""/></g><g><path fill="none" stroke="#000000" paint-order="fill stroke markers" d=" M 1238 261 L 1731.03759765625 261" stroke-miterlimit="10" stroke-dasharray=""/></g><g><g><path fill="none" stroke="none"/><text fill="#000000" stroke="none" font-family="Arial" font-size="13px" font-style="normal" font-weight="bold" text-decoration="undefined" x="2651.018798828125" y="2689.5" text-anchor="middle" dominant-baseline="central" transform="matrix(1 0 0 1 -1166 -2478)">FileReaderService</text></g></g><g><g><path fill="none" stroke="none"/><text fill="#000000" stroke="none" font-family="Arial" font-size="13px" font-style="normal" font-weight="normal" text-decoration="undefined" x="2651.018798828125" y="2704.5" text-anchor="middle" dominant-baseline="central" transform="matrix(1 0 0 1 -1166 -2478)">(from Infrastructure)</text></g></g><g><g><path fill="none" stroke="none"/><text fill="#000000" stroke="none" font-family="Arial" font-size="13px" font-style="normal" font-weight="normal" text-decoration="undefined" x="2409" y="2727.5" text-anchor="start" dominant-baseline="central" transform="matrix(1 0 0 1 -1166 -2478)">-defaultIgnorePatterns: string[]</text></g></g><g><g><path fill="none" stroke="none"/><text fill="#000000" stroke="none" font-family="Arial" font-size="13px" font-style="normal" font-weight="normal" text-decoration="undefined" x="2409" y="2750.5" text-anchor="start" dominant-baseline="central" transform="matrix(1 0 0 1 -1166 -2478)">-convertToGlobPattern(pattern: string): string</text></g></g><g><g><path fill="none" stroke="none"/><text fill="#000000" stroke="none" font-family="Arial" font-size="13px" font-style="normal" font-weight="normal" text-decoration="undefined" x="2409" y="2765.5" text-anchor="start" dominant-baseline="central" transform="matrix(1 0 0 1 -1166 -2478)">+getIgnorePatterns(): Promise&lt;string[]&gt;</text></g></g><g><g><path fill="none" stroke="none"/><text fill="#000000" stroke="none" font-family="Arial" font-size="13px" font-style="normal" font-weight="normal" text-decoration="undefined" x="2409" y="2780.5" text-anchor="start" dominant-baseline="central" transform="matrix(1 0 0 1 -1166 -2478)">+getFilesContent(pattern: string, exclude?: string): Promise&lt;Record&lt;string, string&gt;&gt;</text></g></g><g><g><path fill="none" stroke="none"/><text fill="#000000" stroke="none" font-family="Arial" font-size="13px" font-style="normal" font-weight="normal" text-decoration="undefined" x="2409" y="2795.5" text-anchor="start" dominant-baseline="central" transform="matrix(1 0 0 1 -1166 -2478)">+getAllCFiles(): Promise&lt;Record&lt;string, string&gt;&gt;</text></g></g><g><rect fill="#C0C0C0" stroke="none" x="1207" y="2690" width="551.52490234375" height="118" transform="matrix(1 0 0 1 -1166 -2478)" fill-opacity="0.2"/></g><g><rect fill="#ffffff" stroke="none" x="1200" y="2683" width="551.52490234375" height="118" transform="matrix(1 0 0 1 -1166 -2478)"/></g><g><path fill="none" stroke="#000000" paint-order="fill stroke markers" d=" M 34 205 L 585.52490234375 205 L 585.52490234375 323 L 34 323 L 34 205 Z Z" stroke-miterlimit="10" stroke-dasharray=""/></g><g><path fill="none" stroke="#000000" paint-order="fill stroke markers" d=" M 34 245 L 585.52490234375 245" stroke-miterlimit="10" stroke-dasharray=""/></g><g><path fill="none" stroke="#000000" paint-order="fill stroke markers" d=" M 34 255 L 585.52490234375 255" stroke-miterlimit="10" stroke-dasharray=""/></g><g><g><path fill="none" stroke="none"/><text fill="#000000" stroke="none" font-family="Arial" font-size="13px" font-style="normal" font-weight="bold" text-decoration="undefined" x="1476.262451171875" y="2696.5" text-anchor="middle" dominant-baseline="central" transform="matrix(1 0 0 1 -1166 -2478)">CsvService</text></g></g><g><g><path fill="none" stroke="none"/><text fill="#000000" stroke="none" font-family="Arial" font-size="13px" font-style="normal" font-weight="normal" text-decoration="undefined" x="1476.262451171875" y="2711.5" text-anchor="middle" dominant-baseline="central" transform="matrix(1 0 0 1 -1166 -2478)">(from Infrastructure)</text></g></g><g><g><path fill="none" stroke="none"/><text fill="#000000" stroke="none" font-family="Arial" font-size="13px" font-style="normal" font-weight="normal" text-decoration="undefined" x="1205" y="2744.5" text-anchor="start" dominant-baseline="central" transform="matrix(1 0 0 1 -1166 -2478)">-formatTraceability(traceability: Traceability[]): { file: string, range: string }</text></g></g><g><g><path fill="none" stroke="none"/><text fill="#000000" stroke="none" font-family="Arial" font-size="13px" font-style="normal" font-weight="normal" text-decoration="undefined" x="1205" y="2759.5" text-anchor="start" dominant-baseline="central" transform="matrix(1 0 0 1 -1166 -2478)">+exportToCsv(analyzedRequirements: any, allRequirements: any): Promise&lt;void&gt;</text></g></g><g><g><path fill="none" stroke="none"/><text fill="#000000" stroke="none" font-family="Arial" font-size="13px" font-style="normal" font-weight="normal" text-decoration="undefined" x="1205" y="2774.5" text-anchor="start" dominant-baseline="central" transform="matrix(1 0 0 1 -1166 -2478)">+parseCSVData(data: string): (ParsedRequirement | AnalyzedRequirement)[]</text></g></g><g><g><path fill="none" stroke="none"/><text fill="#000000" stroke="none" font-family="Arial" font-size="13px" font-style="normal" font-weight="normal" text-decoration="undefined" x="1205" y="2789.5" text-anchor="start" dominant-baseline="central" transform="matrix(1 0 0 1 -1166 -2478)">+importFromCsv(filePath: string): Promise&lt;{requirements, numRequirements, numAnalyzed}&gt;</text></g></g></g></svg>