<svg version="1.1" xmlns="http://www.w3.org/2000/svg" xmlns:xlink="http://www.w3.org/1999/xlink" width="805" height="492"><defs/><g><g><path fill="none" stroke="#000000" paint-order="fill stroke markers" d=" M 241 199 L 297 199" stroke-miterlimit="10" stroke-dasharray=""/></g><g><path fill="none" stroke="#000000" paint-order="fill stroke markers" d=" M 286.8373251423759 203.20951775601588 L 297 199 L 286.8373251423758 194.79048224398412" stroke-miterlimit="10" stroke-dasharray=""/></g><g><rect fill="#C0C0C0" stroke="none" x="327" y="1663" width="313.6" height="15" transform="matrix(1 0 0 1 -310 -1582)" fill-opacity="0.2"/></g><g><rect fill="#C0C0C0" stroke="none" x="327" y="1677" width="784" height="186" transform="matrix(1 0 0 1 -310 -1582)" fill-opacity="0.2"/></g><g><rect fill="#ffffff" stroke="none" x="320" y="1671" width="784" height="185" transform="matrix(1 0 0 1 -310 -1582)"/></g><g><path fill="none" stroke="#000000" paint-order="fill stroke markers" d=" M 10 89 L 794 89 L 794 274 L 10 274 L 10 89 Z Z" stroke-miterlimit="10" stroke-dasharray=""/></g><g><rect fill="#ffffff" stroke="none" x="320" y="1656" width="313.6" height="15" transform="matrix(1 0 0 1 -310 -1582)"/></g><g><path fill="none" stroke="#000000" paint-order="fill stroke markers" d=" M 10 74 L 323.6 74 L 323.6 89 L 10 89 L 10 74 Z Z" stroke-miterlimit="10" stroke-dasharray=""/></g><g><rect fill="#ffffff" stroke="none" x="320" y="1670" width="784" height="186" transform="matrix(1 0 0 1 -310 -1582)"/></g><g><path fill="none" stroke="#000000" paint-order="fill stroke markers" d=" M 10 88 L 794 88 L 794 274 L 10 274 L 10 88 Z Z" stroke-miterlimit="10" stroke-dasharray=""/></g><g><g><path fill="none" stroke="none"/><text fill="#000000" stroke="none" font-family="Arial" font-size="13px" font-style="normal" font-weight="bold" text-decoration="undefined" x="712.5" y="1684.5" text-anchor="middle" dominant-baseline="central" transform="matrix(1 0 0 1 -310 -1582)">Application</text></g></g><g><g><path fill="none" stroke="none"/><text fill="#000000" stroke="none" font-family="Arial" font-size="13px" font-style="normal" font-weight="normal" text-decoration="undefined" x="712.5" y="1699.5" text-anchor="middle" dominant-baseline="central" transform="matrix(1 0 0 1 -310 -1582)">(from Model)</text></g></g><g><rect fill="#C0C0C0" stroke="none" x="383" y="1751" width="174.38525390625" height="73" transform="matrix(1 0 0 1 -310 -1582)" fill-opacity="0.2"/></g><g><rect fill="#ffffff" stroke="none" x="376" y="1744" width="174.38525390625" height="73" transform="matrix(1 0 0 1 -310 -1582)"/></g><g><path fill="none" stroke="#000000" paint-order="fill stroke markers" d=" M 66 162 L 240.38525390625 162 L 240.38525390625 235 L 66 235 L 66 162 Z Z" stroke-miterlimit="10" stroke-dasharray=""/></g><g><path fill="none" stroke="#000000" paint-order="fill stroke markers" d=" M 66 202 L 240.38525390625 202" stroke-miterlimit="10" stroke-dasharray=""/></g><g><path fill="none" stroke="#000000" paint-order="fill stroke markers" d=" M 66 212 L 240.38525390625 212" stroke-miterlimit="10" stroke-dasharray=""/></g><g><g><path fill="none" stroke="none"/><text fill="#000000" stroke="none" font-family="Arial" font-size="13px" font-style="normal" font-weight="bold" text-decoration="undefined" x="463.692626953125" y="1757.5" text-anchor="middle" dominant-baseline="central" transform="matrix(1 0 0 1 -310 -1582)">Main</text></g></g><g><g><path fill="none" stroke="none"/><text fill="#000000" stroke="none" font-family="Arial" font-size="13px" font-style="normal" font-weight="normal" text-decoration="undefined" x="463.692626953125" y="1772.5" text-anchor="middle" dominant-baseline="central" transform="matrix(1 0 0 1 -310 -1582)">(from Application)</text></g></g><g><g><path fill="none" stroke="none"/><text fill="#000000" stroke="none" font-family="Arial" font-size="13px" font-style="normal" font-weight="normal" text-decoration="undefined" x="381" y="1805.5" text-anchor="start" dominant-baseline="central" transform="matrix(1 0 0 1 -310 -1582)">+bootstrap(): Promise&lt;void&gt;</text></g></g><g><rect fill="#C0C0C0" stroke="none" x="615" y="1759" width="147.998046875" height="60" transform="matrix(1 0 0 1 -310 -1582)" fill-opacity="0.2"/></g><g><rect fill="#ffffff" stroke="none" x="608" y="1752" width="147.998046875" height="60" transform="matrix(1 0 0 1 -310 -1582)"/></g><g><path fill="none" stroke="#000000" paint-order="fill stroke markers" d=" M 298 170 L 445.998046875 170 L 445.998046875 230 L 298 230 L 298 170 Z Z" stroke-miterlimit="10" stroke-dasharray=""/></g><g><path fill="none" stroke="#000000" paint-order="fill stroke markers" d=" M 298 210 L 445.998046875 210" stroke-miterlimit="10" stroke-dasharray=""/></g><g><path fill="none" stroke="#000000" paint-order="fill stroke markers" d=" M 298 220 L 445.998046875 220" stroke-miterlimit="10" stroke-dasharray=""/></g><g><g><path fill="none" stroke="none"/><text fill="#000000" stroke="none" font-family="Arial" font-size="13px" font-style="normal" font-weight="bold" text-decoration="undefined" x="682.4990234375" y="1765.5" text-anchor="middle" dominant-baseline="central" transform="matrix(1 0 0 1 -310 -1582)">AppModule</text></g></g><g><g><path fill="none" stroke="none"/><text fill="#000000" stroke="none" font-family="Arial" font-size="13px" font-style="normal" font-weight="normal" text-decoration="undefined" x="682.4990234375" y="1780.5" text-anchor="middle" dominant-baseline="central" transform="matrix(1 0 0 1 -310 -1582)">(from Application)</text></g></g><g><path fill="none" stroke="#000000" paint-order="fill stroke markers" d=" M 241 199 L 297 199" stroke-miterlimit="10" stroke-dasharray=""/></g><g><path fill="none" stroke="#000000" paint-order="fill stroke markers" d=" M 286.8373251423759 203.20951775601588 L 297 199 L 286.8373251423758 194.79048224398412" stroke-miterlimit="10" stroke-dasharray=""/></g><g><path fill="none" stroke="#000000" paint-order="fill stroke markers" d=" M 447 200 L 537 200" stroke-miterlimit="10" stroke-dasharray=""/></g><g><path fill="#000000" stroke="none" paint-order="stroke fill markers" d=" M 526.8373251423759 204.20951775601588 L 537 200 L 526.8373251423758 195.79048224398412 L 515 200"/></g><g><path fill="none" stroke="#000000" paint-order="fill stroke markers" d=" M 526.8373251423759 204.20951775601588 L 537 200 L 526.8373251423758 195.79048224398412 L 515 200 L 526.8373251423759 204.20951775601588" stroke-miterlimit="10" stroke-dasharray=""/></g><g><rect fill="#C0C0C0" stroke="none" x="855" y="1759" width="188.42626953125" height="60" transform="matrix(1 0 0 1 -310 -1582)" fill-opacity="0.2"/></g><g><rect fill="#ffffff" stroke="none" x="848" y="1752" width="188.42626953125" height="60" transform="matrix(1 0 0 1 -310 -1582)"/></g><g><path fill="none" stroke="#000000" paint-order="fill stroke markers" d=" M 538 170 L 726.42626953125 170 L 726.42626953125 230 L 538 230 L 538 170 Z Z" stroke-miterlimit="10" stroke-dasharray=""/></g><g><path fill="none" stroke="#000000" paint-order="fill stroke markers" d=" M 538 210 L 726.42626953125 210" stroke-miterlimit="10" stroke-dasharray=""/></g><g><path fill="none" stroke="#000000" paint-order="fill stroke markers" d=" M 538 220 L 726.42626953125 220" stroke-miterlimit="10" stroke-dasharray=""/></g><g><g><path fill="none" stroke="none"/><text fill="#000000" stroke="none" font-family="Arial" font-size="13px" font-style="normal" font-weight="bold" text-decoration="undefined" x="942.713134765625" y="1765.5" text-anchor="middle" dominant-baseline="central" transform="matrix(1 0 0 1 -310 -1582)">RequirementAnalysisModule</text></g></g><g><g><path fill="none" stroke="none"/><text fill="#000000" stroke="none" font-family="Arial" font-size="13px" font-style="normal" font-weight="normal" text-decoration="undefined" x="942.713134765625" y="1780.5" text-anchor="middle" dominant-baseline="central" transform="matrix(1 0 0 1 -310 -1582)">(from Application)</text></g></g><g><rect fill="#C0C0C0" stroke="none" x="359" y="1903" width="294.4" height="15" transform="matrix(1 0 0 1 -310 -1582)" fill-opacity="0.2"/></g><g><rect fill="#C0C0C0" stroke="none" x="359" y="1917" width="736" height="154" transform="matrix(1 0 0 1 -310 -1582)" fill-opacity="0.2"/></g><g><rect fill="#ffffff" stroke="none" x="352" y="1911" width="736" height="153" transform="matrix(1 0 0 1 -310 -1582)"/></g><g><path fill="none" stroke="#000000" paint-order="fill stroke markers" d=" M 42 329 L 778 329 L 778 482 L 42 482 L 42 329 Z Z" stroke-miterlimit="10" stroke-dasharray=""/></g><g><rect fill="#ffffff" stroke="none" x="352" y="1896" width="294.4" height="15" transform="matrix(1 0 0 1 -310 -1582)"/></g><g><path fill="none" stroke="#000000" paint-order="fill stroke markers" d=" M 42 314 L 336.4 314 L 336.4 329 L 42 329 L 42 314 Z Z" stroke-miterlimit="10" stroke-dasharray=""/></g><g><rect fill="#ffffff" stroke="none" x="352" y="1910" width="736" height="154" transform="matrix(1 0 0 1 -310 -1582)"/></g><g><path fill="none" stroke="#000000" paint-order="fill stroke markers" d=" M 42 328 L 778 328 L 778 482 L 42 482 L 42 328 Z Z" stroke-miterlimit="10" stroke-dasharray=""/></g><g><g><path fill="none" stroke="none"/><text fill="#000000" stroke="none" font-family="Arial" font-size="13px" font-style="normal" font-weight="bold" text-decoration="undefined" x="720.5" y="1924.5" text-anchor="middle" dominant-baseline="central" transform="matrix(1 0 0 1 -310 -1582)">Adapters</text></g></g><g><g><path fill="none" stroke="none"/><text fill="#000000" stroke="none" font-family="Arial" font-size="13px" font-style="normal" font-weight="normal" text-decoration="undefined" x="720.5" y="1939.5" text-anchor="middle" dominant-baseline="central" transform="matrix(1 0 0 1 -310 -1582)">(from Model)</text></g></g><g><rect fill="#C0C0C0" stroke="none" x="375" y="1983" width="205.04443359375" height="60" transform="matrix(1 0 0 1 -310 -1582)" fill-opacity="0.2"/></g><g><rect fill="#ffffff" stroke="none" x="368" y="1976" width="205.04443359375" height="60" transform="matrix(1 0 0 1 -310 -1582)"/></g><g><path fill="none" stroke="#000000" paint-order="fill stroke markers" d=" M 58 394 L 263.04443359375 394 L 263.04443359375 454 L 58 454 L 58 394 Z Z" stroke-miterlimit="10" stroke-dasharray=""/></g><g><path fill="none" stroke="#000000" paint-order="fill stroke markers" d=" M 58 434 L 263.04443359375 434" stroke-miterlimit="10" stroke-dasharray=""/></g><g><path fill="none" stroke="#000000" paint-order="fill stroke markers" d=" M 58 444 L 263.04443359375 444" stroke-miterlimit="10" stroke-dasharray=""/></g><g><g><path fill="none" stroke="none"/><text fill="#000000" stroke="none" font-family="Arial" font-size="13px" font-style="normal" font-weight="bold" text-decoration="undefined" x="471.022216796875" y="1989.5" text-anchor="middle" dominant-baseline="central" transform="matrix(1 0 0 1 -310 -1582)">RequirementAnalysisController</text></g></g><g><g><path fill="none" stroke="none"/><text fill="#000000" stroke="none" font-family="Arial" font-size="13px" font-style="normal" font-weight="normal" text-decoration="undefined" x="471.022216796875" y="2004.5" text-anchor="middle" dominant-baseline="central" transform="matrix(1 0 0 1 -310 -1582)">(from Adapters)</text></g></g><g><path fill="none" stroke="#000000" paint-order="fill stroke markers" d=" M 146 394 L 146 290 L 634 290 L 634 230" stroke-miterlimit="10" stroke-dasharray=""/></g><g><path fill="#000000" stroke="none" paint-order="stroke fill markers" d=" M 638.209517756016 240.1626748576241 L 634 230 L 629.790482243984 240.1626748576241 L 634 252"/></g><g><path fill="none" stroke="#000000" paint-order="fill stroke markers" d=" M 638.209517756016 240.1626748576241 L 634 230 L 629.790482243984 240.1626748576241 L 634 252 L 638.209517756016 240.1626748576241" stroke-miterlimit="10" stroke-dasharray=""/></g><g><rect fill="#C0C0C0" stroke="none" x="631" y="1983" width="136.4326171875" height="60" transform="matrix(1 0 0 1 -310 -1582)" fill-opacity="0.2"/></g><g><rect fill="#ffffff" stroke="none" x="624" y="1976" width="136.4326171875" height="60" transform="matrix(1 0 0 1 -310 -1582)"/></g><g><path fill="none" stroke="#000000" paint-order="fill stroke markers" d=" M 314 394 L 450.4326171875 394 L 450.4326171875 454 L 314 454 L 314 394 Z Z" stroke-miterlimit="10" stroke-dasharray=""/></g><g><path fill="none" stroke="#000000" paint-order="fill stroke markers" d=" M 314 434 L 450.4326171875 434" stroke-miterlimit="10" stroke-dasharray=""/></g><g><path fill="none" stroke="#000000" paint-order="fill stroke markers" d=" M 314 444 L 450.4326171875 444" stroke-miterlimit="10" stroke-dasharray=""/></g><g><g><path fill="none" stroke="none"/><text fill="#000000" stroke="none" font-family="Arial" font-size="13px" font-style="normal" font-weight="bold" text-decoration="undefined" x="692.71630859375" y="1989.5" text-anchor="middle" dominant-baseline="central" transform="matrix(1 0 0 1 -310 -1582)">JsonParserAdapter</text></g></g><g><g><path fill="none" stroke="none"/><text fill="#000000" stroke="none" font-family="Arial" font-size="13px" font-style="normal" font-weight="normal" text-decoration="undefined" x="692.71630859375" y="2004.5" text-anchor="middle" dominant-baseline="central" transform="matrix(1 0 0 1 -310 -1582)">(from Adapters)</text></g></g><g><rect fill="#C0C0C0" stroke="none" x="935" y="1983" width="144" height="60" transform="matrix(1 0 0 1 -310 -1582)" fill-opacity="0.2"/></g><g><rect fill="#ffffff" stroke="none" x="928" y="1976" width="144" height="60" transform="matrix(1 0 0 1 -310 -1582)"/></g><g><path fill="none" stroke="#000000" paint-order="fill stroke markers" d=" M 618 394 L 762 394 L 762 454 L 618 454 L 618 394 Z Z" stroke-miterlimit="10" stroke-dasharray=""/></g><g><path fill="none" stroke="#000000" paint-order="fill stroke markers" d=" M 618 434 L 762 434" stroke-miterlimit="10" stroke-dasharray=""/></g><g><path fill="none" stroke="#000000" paint-order="fill stroke markers" d=" M 618 444 L 762 444" stroke-miterlimit="10" stroke-dasharray=""/></g><g><g><path fill="none" stroke="none"/><text fill="#000000" stroke="none" font-family="Arial" font-size="13px" font-style="normal" font-weight="bold" text-decoration="undefined" x="1000.5" y="1989.5" text-anchor="middle" dominant-baseline="central" transform="matrix(1 0 0 1 -310 -1582)">OllamaApiAdapter</text></g></g><g><g><path fill="none" stroke="none"/><text fill="#000000" stroke="none" font-family="Arial" font-size="13px" font-style="normal" font-weight="normal" text-decoration="undefined" x="1000.5" y="2004.5" text-anchor="middle" dominant-baseline="central" transform="matrix(1 0 0 1 -310 -1582)">(from Adapters)</text></g></g><g><rect fill="#C0C0C0" stroke="none" x="783" y="1983" width="136.4326171875" height="60" transform="matrix(1 0 0 1 -310 -1582)" fill-opacity="0.2"/></g><g><rect fill="#ffffff" stroke="none" x="776" y="1976" width="136.4326171875" height="60" transform="matrix(1 0 0 1 -310 -1582)"/></g><g><path fill="none" stroke="#000000" paint-order="fill stroke markers" d=" M 466 394 L 602.4326171875 394 L 602.4326171875 454 L 466 454 L 466 394 Z Z" stroke-miterlimit="10" stroke-dasharray=""/></g><g><path fill="none" stroke="#000000" paint-order="fill stroke markers" d=" M 466 434 L 602.4326171875 434" stroke-miterlimit="10" stroke-dasharray=""/></g><g><path fill="none" stroke="#000000" paint-order="fill stroke markers" d=" M 466 444 L 602.4326171875 444" stroke-miterlimit="10" stroke-dasharray=""/></g><g><g><path fill="none" stroke="none"/><text fill="#000000" stroke="none" font-family="Arial" font-size="13px" font-style="normal" font-weight="bold" text-decoration="undefined" x="844.71630859375" y="1989.5" text-anchor="middle" dominant-baseline="central" transform="matrix(1 0 0 1 -310 -1582)">ConfigAdapter</text></g></g><g><g><path fill="none" stroke="none"/><text fill="#000000" stroke="none" font-family="Arial" font-size="13px" font-style="normal" font-weight="normal" text-decoration="undefined" x="844.71630859375" y="2004.5" text-anchor="middle" dominant-baseline="central" transform="matrix(1 0 0 1 -310 -1582)">(from Adapters)</text></g></g><g><rect fill="#C0C0C0" stroke="none" x="655" y="1599" width="27.996679687499977" height="15" transform="matrix(1 0 0 1 -310 -1582)" fill-opacity="0.2"/></g><g><rect fill="#C0C0C0" stroke="none" x="655" y="1613" width="69.99169921875" height="26" transform="matrix(1 0 0 1 -310 -1582)" fill-opacity="0.2"/></g><g><rect fill="#ffffff" stroke="none" x="648" y="1607" width="69.99169921875" height="25" transform="matrix(1 0 0 1 -310 -1582)"/></g><g><path fill="none" stroke="#000000" paint-order="fill stroke markers" d=" M 338 25 L 407.99169921875 25 L 407.99169921875 50 L 338 50 L 338 25 Z Z" stroke-miterlimit="10" stroke-dasharray=""/></g><g><rect fill="#ffffff" stroke="none" x="648" y="1592" width="27.996679687499977" height="15" transform="matrix(1 0 0 1 -310 -1582)"/></g><g><path fill="none" stroke="#000000" paint-order="fill stroke markers" d=" M 338 10 L 365.9966796875 10 L 365.9966796875 25 L 338 25 L 338 10 Z Z" stroke-miterlimit="10" stroke-dasharray=""/></g><g><rect fill="#ffffff" stroke="none" x="648" y="1606" width="69.99169921875" height="26" transform="matrix(1 0 0 1 -310 -1582)"/></g><g><path fill="none" stroke="#000000" paint-order="fill stroke markers" d=" M 338 24 L 407.99169921875 24 L 407.99169921875 50 L 338 50 L 338 24 Z Z" stroke-miterlimit="10" stroke-dasharray=""/></g><g><g><path fill="none" stroke="none"/><text fill="#000000" stroke="none" font-family="Arial" font-size="13px" font-style="normal" font-weight="bold" text-decoration="undefined" x="683.495849609375" y="1620.5" text-anchor="middle" dominant-baseline="central" transform="matrix(1 0 0 1 -310 -1582)">nestjs</text></g></g><g><path fill="none" stroke="#000000" paint-order="fill stroke markers" d=" M 371 169 L 372 51" stroke-miterlimit="10" stroke-dasharray="3"/></g><g><path fill="none" stroke="#000000" paint-order="fill stroke markers" d=" M 376.1232453329442 61.19798254187344 L 372 51 L 367.7045121256399 61.12663734520129" stroke-miterlimit="10" stroke-dasharray=""/></g><g><path fill="none" stroke="#000000" paint-order="fill stroke markers" d=" M 362 394 L 362 290 L 634 290 L 634 230" stroke-miterlimit="10" stroke-dasharray=""/></g><g><path fill="#000000" stroke="none" paint-order="stroke fill markers" d=" M 638.209517756016 240.1626748576241 L 634 230 L 629.790482243984 240.1626748576241 L 634 252"/></g><g><path fill="none" stroke="#000000" paint-order="fill stroke markers" d=" M 638.209517756016 240.1626748576241 L 634 230 L 629.790482243984 240.1626748576241 L 634 252 L 638.209517756016 240.1626748576241" stroke-miterlimit="10" stroke-dasharray=""/></g><g><path fill="none" stroke="#000000" paint-order="fill stroke markers" d=" M 522 394 L 522 290 L 634 290 L 634 230" stroke-miterlimit="10" stroke-dasharray=""/></g><g><path fill="#000000" stroke="none" paint-order="stroke fill markers" d=" M 638.209517756016 240.1626748576241 L 634 230 L 629.790482243984 240.1626748576241 L 634 252"/></g><g><path fill="none" stroke="#000000" paint-order="fill stroke markers" d=" M 638.209517756016 240.1626748576241 L 634 230 L 629.790482243984 240.1626748576241 L 634 252 L 638.209517756016 240.1626748576241" stroke-miterlimit="10" stroke-dasharray=""/></g><g><path fill="none" stroke="#000000" paint-order="fill stroke markers" d=" M 690 394 L 690 290 L 634 290 L 634 230" stroke-miterlimit="10" stroke-dasharray=""/></g><g><path fill="#000000" stroke="none" paint-order="stroke fill markers" d=" M 638.209517756016 240.1626748576241 L 634 230 L 629.790482243984 240.1626748576241 L 634 252"/></g><g><path fill="none" stroke="#000000" paint-order="fill stroke markers" d=" M 638.209517756016 240.1626748576241 L 634 230 L 629.790482243984 240.1626748576241 L 634 252 L 638.209517756016 240.1626748576241" stroke-miterlimit="10" stroke-dasharray=""/></g></g></svg>