<svg version="1.1" xmlns="http://www.w3.org/2000/svg" xmlns:xlink="http://www.w3.org/1999/xlink" width="1677" height="925"><defs/><g><g><rect fill="#C0C0C0" stroke="none" x="719" y="367" width="140.79999999999995" height="15" transform="matrix(1 0 0 1 -702 -102)" fill-opacity="0.2"/></g><g><rect fill="#C0C0C0" stroke="none" x="719" y="381" width="352" height="186" transform="matrix(1 0 0 1 -702 -102)" fill-opacity="0.2"/></g><g><rect fill="#ffffff" stroke="none" x="712" y="375" width="352" height="185" transform="matrix(1 0 0 1 -702 -102)"/></g><g><path fill="none" stroke="#000000" paint-order="fill stroke markers" d=" M 10 273 L 362 273 L 362 458 L 10 458 L 10 273 Z Z" stroke-miterlimit="10" stroke-dasharray=""/></g><g><rect fill="#ffffff" stroke="none" x="712" y="360" width="140.79999999999995" height="15" transform="matrix(1 0 0 1 -702 -102)"/></g><g><path fill="none" stroke="#000000" paint-order="fill stroke markers" d=" M 10 258 L 150.79999999999995 258 L 150.79999999999995 273 L 10 273 L 10 258 Z Z" stroke-miterlimit="10" stroke-dasharray=""/></g><g><rect fill="#ffffff" stroke="none" x="712" y="374" width="352" height="186" transform="matrix(1 0 0 1 -702 -102)"/></g><g><path fill="none" stroke="#000000" paint-order="fill stroke markers" d=" M 10 272 L 362 272 L 362 458 L 10 458 L 10 272 Z Z" stroke-miterlimit="10" stroke-dasharray=""/></g><g><g><path fill="none" stroke="none"/><text fill="#000000" stroke="none" font-family="Arial" font-size="13px" font-style="normal" font-weight="bold" text-decoration="undefined" x="888.5" y="388.5" text-anchor="middle" dominant-baseline="central" transform="matrix(1 0 0 1 -702 -102)">Composition Root</text></g></g><g><rect fill="#C0C0C0" stroke="none" x="751" y="447" width="300.59228515625" height="88" transform="matrix(1 0 0 1 -702 -102)" fill-opacity="0.2"/></g><g><rect fill="#ffffff" stroke="none" x="744" y="440" width="300.59228515625" height="88" transform="matrix(1 0 0 1 -702 -102)"/></g><g><path fill="none" stroke="#000000" paint-order="fill stroke markers" d=" M 42 338 L 342.59228515625 338 L 342.59228515625 426 L 42 426 L 42 338 Z Z" stroke-miterlimit="10" stroke-dasharray=""/></g><g><path fill="none" stroke="#000000" paint-order="fill stroke markers" d=" M 42 378 L 342.59228515625 378" stroke-miterlimit="10" stroke-dasharray=""/></g><g><path fill="none" stroke="#000000" paint-order="fill stroke markers" d=" M 42 388 L 342.59228515625 388" stroke-miterlimit="10" stroke-dasharray=""/></g><g><g><path fill="none" stroke="none"/><text fill="#000000" stroke="none" font-family="Arial" font-size="13px" font-style="normal" font-weight="bold" text-decoration="undefined" x="894.796142578125" y="453.5" text-anchor="middle" dominant-baseline="central" transform="matrix(1 0 0 1 -702 -102)">Extension</text></g></g><g><g><path fill="none" stroke="none"/><text fill="#000000" stroke="none" font-family="Arial" font-size="13px" font-style="normal" font-weight="normal" text-decoration="undefined" x="894.796142578125" y="468.5" text-anchor="middle" dominant-baseline="central" transform="matrix(1 0 0 1 -702 -102)">(from Composition Root)</text></g></g><g><g><path fill="none" stroke="none"/><text fill="#000000" stroke="none" font-family="Arial" font-size="13px" font-style="normal" font-weight="normal" text-decoration="undefined" x="749" y="501.5" text-anchor="start" dominant-baseline="central" transform="matrix(1 0 0 1 -702 -102)">+activate(context: vscode.ExtensionContext): void</text></g></g><g><g><path fill="none" stroke="none"/><text fill="#000000" stroke="none" font-family="Arial" font-size="13px" font-style="normal" font-weight="normal" text-decoration="undefined" x="749" y="516.5" text-anchor="start" dominant-baseline="central" transform="matrix(1 0 0 1 -702 -102)">+{deactivate(): void</text></g></g><g><rect fill="#C0C0C0" stroke="none" x="1119" y="119" width="502.4000000000001" height="15" transform="matrix(1 0 0 1 -702 -102)" fill-opacity="0.2"/></g><g><rect fill="#C0C0C0" stroke="none" x="1119" y="133" width="1256" height="634" transform="matrix(1 0 0 1 -702 -102)" fill-opacity="0.2"/></g><g><rect fill="#ffffff" stroke="none" x="1112" y="127" width="1256" height="633" transform="matrix(1 0 0 1 -702 -102)"/></g><g><path fill="none" stroke="#000000" paint-order="fill stroke markers" d=" M 410 25 L 1666 25 L 1666 658 L 410 658 L 410 25 Z Z" stroke-miterlimit="10" stroke-dasharray=""/></g><g><rect fill="#ffffff" stroke="none" x="1112" y="112" width="502.4000000000001" height="15" transform="matrix(1 0 0 1 -702 -102)"/></g><g><path fill="none" stroke="#000000" paint-order="fill stroke markers" d=" M 410 10 L 912.4000000000001 10 L 912.4000000000001 25 L 410 25 L 410 10 Z Z" stroke-miterlimit="10" stroke-dasharray=""/></g><g><rect fill="#ffffff" stroke="none" x="1112" y="126" width="1256" height="634" transform="matrix(1 0 0 1 -702 -102)"/></g><g><path fill="none" stroke="#000000" paint-order="fill stroke markers" d=" M 410 24 L 1666 24 L 1666 658 L 410 658 L 410 24 Z Z" stroke-miterlimit="10" stroke-dasharray=""/></g><g><g><path fill="none" stroke="none"/><text fill="#000000" stroke="none" font-family="Arial" font-size="13px" font-style="normal" font-weight="bold" text-decoration="undefined" x="1740.5" y="140.5" text-anchor="middle" dominant-baseline="central" transform="matrix(1 0 0 1 -702 -102)">Presentation</text></g></g><g><path fill="none" stroke="#000000" paint-order="fill stroke markers" d=" M 234 338 L 234 90 L 674 90 L 674 118" stroke-miterlimit="10" stroke-dasharray="3"/></g><g><path fill="none" stroke="#000000" paint-order="fill stroke markers" d=" M 669.7904822439841 107.83732514237585 L 674 118 L 678.2095177560159 107.83732514237585" stroke-miterlimit="10" stroke-dasharray=""/></g><g><path fill="none" stroke="#000000" paint-order="fill stroke markers" d=" M 146 338 L 146 66 L 1282 66 L 1282 126" stroke-miterlimit="10" stroke-dasharray="3"/></g><g><path fill="none" stroke="#000000" paint-order="fill stroke markers" d=" M 1277.7904822439841 115.83732514237585 L 1282 126 L 1286.2095177560159 115.83732514237585" stroke-miterlimit="10" stroke-dasharray=""/></g><g><rect fill="#C0C0C0" stroke="none" x="1186" y="227" width="389.93896484375" height="116" transform="matrix(1 0 0 1 -702 -102)" fill-opacity="0.2"/></g><g><rect fill="#ffffff" stroke="none" x="1179" y="220" width="389.93896484375" height="116" transform="matrix(1 0 0 1 -702 -102)"/></g><g><path fill="none" stroke="#000000" paint-order="fill stroke markers" d=" M 477 118 L 866.93896484375 118 L 866.93896484375 234 L 477 234 L 477 118 Z Z" stroke-miterlimit="10" stroke-dasharray=""/></g><g><path fill="none" stroke="#000000" paint-order="fill stroke markers" d=" M 477 158 L 866.93896484375 158" stroke-miterlimit="10" stroke-dasharray=""/></g><g><path fill="none" stroke="#000000" paint-order="fill stroke markers" d=" M 477 196 L 866.93896484375 196" stroke-miterlimit="10" stroke-dasharray=""/></g><g><g><path fill="none" stroke="none"/><text fill="#000000" stroke="none" font-family="Arial" font-size="13px" font-style="normal" font-weight="bold" text-decoration="undefined" x="1374.469482421875" y="233.5" text-anchor="middle" dominant-baseline="central" transform="matrix(1 0 0 1 -702 -102)">SearchSidebarProvider</text></g></g><g><g><path fill="none" stroke="none"/><text fill="#000000" stroke="none" font-family="Arial" font-size="13px" font-style="normal" font-weight="normal" text-decoration="undefined" x="1374.469482421875" y="248.5" text-anchor="middle" dominant-baseline="central" transform="matrix(1 0 0 1 -702 -102)">(from Presentation)</text></g></g><g><g><path fill="none" stroke="none"/><text fill="#000000" stroke="none" font-family="Arial" font-size="13px" font-style="normal" font-weight="normal" text-decoration="undefined" x="1184" y="271.5" text-anchor="start" dominant-baseline="central" transform="matrix(1 0 0 1 -702 -102)">-_extensionUri: vscode.Uri</text></g></g><g><g><path fill="none" stroke="none"/><text fill="#000000" stroke="none" font-family="Arial" font-size="13px" font-style="normal" font-weight="normal" text-decoration="undefined" x="1184" y="286.5" text-anchor="start" dominant-baseline="central" transform="matrix(1 0 0 1 -702 -102)">-_view?: vscode.WebviewView</text></g></g><g><g><path fill="none" stroke="none"/><text fill="#000000" stroke="none" font-family="Arial" font-size="13px" font-style="normal" font-weight="normal" text-decoration="undefined" x="1184" y="309.5" text-anchor="start" dominant-baseline="central" transform="matrix(1 0 0 1 -702 -102)">+resolveWebviewView(webviewView: vscode.WebviewView): void</text></g></g><g><g><path fill="none" stroke="none"/><text fill="#000000" stroke="none" font-family="Arial" font-size="13px" font-style="normal" font-weight="normal" text-decoration="undefined" x="1184" y="324.5" text-anchor="start" dominant-baseline="central" transform="matrix(1 0 0 1 -702 -102)">-_getHtmlForWebview(webview: vscode.Webview): string</text></g></g><g><rect fill="#C0C0C0" stroke="none" x="1194" y="371" width="405" height="326" transform="matrix(1 0 0 1 -702 -102)" fill-opacity="0.2"/></g><g><rect fill="#ffffff" stroke="none" x="1187" y="364" width="405" height="326" transform="matrix(1 0 0 1 -702 -102)"/></g><g><path fill="none" stroke="#000000" paint-order="fill stroke markers" d=" M 485 262 L 890 262 L 890 588 L 485 588 L 485 262 Z Z" stroke-miterlimit="10" stroke-dasharray=""/></g><g><path fill="none" stroke="#000000" paint-order="fill stroke markers" d=" M 485 302 L 890 302" stroke-miterlimit="10" stroke-dasharray=""/></g><g><path fill="none" stroke="#000000" paint-order="fill stroke markers" d=" M 485 370 L 890 370" stroke-miterlimit="10" stroke-dasharray=""/></g><g><g><path fill="none" stroke="none"/><text fill="#000000" stroke="none" font-family="Arial" font-size="13px" font-style="normal" font-weight="bold" text-decoration="undefined" x="1390" y="377.5" text-anchor="middle" dominant-baseline="central" transform="matrix(1 0 0 1 -702 -102)">RequirementsTreeDataProvider</text></g></g><g><g><path fill="none" stroke="none"/><text fill="#000000" stroke="none" font-family="Arial" font-size="13px" font-style="normal" font-weight="normal" text-decoration="undefined" x="1390" y="392.5" text-anchor="middle" dominant-baseline="central" transform="matrix(1 0 0 1 -702 -102)">(from Presentation)</text></g></g><g><g><path fill="none" stroke="none"/><text fill="#000000" stroke="none" font-family="Arial" font-size="13px" font-style="normal" font-weight="normal" text-decoration="undefined" x="1192" y="415.5" text-anchor="start" dominant-baseline="central" transform="matrix(1 0 0 1 -702 -102)">-requirementsService: IRequirementsService</text></g></g><g><g><path fill="none" stroke="none"/><text fill="#000000" stroke="none" font-family="Arial" font-size="13px" font-style="normal" font-weight="normal" text-decoration="undefined" x="1192" y="430.5" text-anchor="start" dominant-baseline="central" transform="matrix(1 0 0 1 -702 -102)">-configuration: IConfiguration</text></g></g><g><g><path fill="none" stroke="none"/><text fill="#000000" stroke="none" font-family="Arial" font-size="13px" font-style="normal" font-weight="normal" text-decoration="undefined" x="1192" y="445.5" text-anchor="start" dominant-baseline="central" transform="matrix(1 0 0 1 -702 -102)">-onDidChangeTreeData: vscode.EventEmitter&lt;RequirementItem&gt;</text></g></g><g><g><path fill="none" stroke="none"/><text fill="#000000" stroke="none" font-family="Arial" font-size="13px" font-style="normal" font-weight="normal" text-decoration="undefined" x="1192" y="460.5" text-anchor="start" dominant-baseline="central" transform="matrix(1 0 0 1 -702 -102)">+onDidChangeTreeData: vscode.Event&lt;RequirementItem&gt;</text></g></g><g><g><path fill="none" stroke="none"/><text fill="#000000" stroke="none" font-family="Arial" font-size="13px" font-style="normal" font-weight="normal" text-decoration="undefined" x="1192" y="483.5" text-anchor="start" dominant-baseline="central" transform="matrix(1 0 0 1 -702 -102)">+getTreeItem(element: RequirementItem): vscode.TreeItem</text></g></g><g><g><path fill="none" stroke="none"/><text fill="#000000" stroke="none" font-family="Arial" font-size="13px" font-style="normal" font-weight="normal" text-decoration="undefined" x="1192" y="498.5" text-anchor="start" dominant-baseline="central" transform="matrix(1 0 0 1 -702 -102)">+getChildren(element?: RequirementItem): RequirementItem[]</text></g></g><g><g><path fill="none" stroke="none"/><text fill="#000000" stroke="none" font-family="Arial" font-size="13px" font-style="normal" font-weight="normal" text-decoration="undefined" x="1192" y="513.5" text-anchor="start" dominant-baseline="central" transform="matrix(1 0 0 1 -702 -102)">+executeExportCommand(): Promise&lt;void&gt; ()</text></g></g><g><g><path fill="none" stroke="none"/><text fill="#000000" stroke="none" font-family="Arial" font-size="13px" font-style="normal" font-weight="normal" text-decoration="undefined" x="1192" y="528.5" text-anchor="start" dominant-baseline="central" transform="matrix(1 0 0 1 -702 -102)">+executeLoadCommand(): Promise&lt;void&gt;()</text></g></g><g><g><path fill="none" stroke="none"/><text fill="#000000" stroke="none" font-family="Arial" font-size="13px" font-style="normal" font-weight="normal" text-decoration="undefined" x="1192" y="543.5" text-anchor="start" dominant-baseline="central" transform="matrix(1 0 0 1 -702 -102)">+executeAnalyzeCommand(): Promise&lt;void&gt;</text></g></g><g><g><path fill="none" stroke="none"/><text fill="#000000" stroke="none" font-family="Arial" font-size="13px" font-style="normal" font-weight="normal" text-decoration="undefined" x="1192" y="558.5" text-anchor="start" dominant-baseline="central" transform="matrix(1 0 0 1 -702 -102)">+executeFilterCommand(searchTerm?: string): Promise&lt;void&gt;</text></g></g><g><g><path fill="none" stroke="none"/><text fill="#000000" stroke="none" font-family="Arial" font-size="13px" font-style="normal" font-weight="normal" text-decoration="undefined" x="1192" y="573.5" text-anchor="start" dominant-baseline="central" transform="matrix(1 0 0 1 -702 -102)">+executeAnalyzeRequirementCommand(req: any): Promise&lt;void&gt;</text></g></g><g><g><path fill="none" stroke="none"/><text fill="#000000" stroke="none" font-family="Arial" font-size="13px" font-style="normal" font-weight="normal" text-decoration="undefined" x="1192" y="588.5" text-anchor="start" dominant-baseline="central" transform="matrix(1 0 0 1 -702 -102)">+executeAnalyzeTraceabilityCommand(req?: any): Promise&lt;void&gt;</text></g></g><g><g><path fill="none" stroke="none"/><text fill="#000000" stroke="none" font-family="Arial" font-size="13px" font-style="normal" font-weight="normal" text-decoration="undefined" x="1192" y="603.5" text-anchor="start" dominant-baseline="central" transform="matrix(1 0 0 1 -702 -102)">+executeSortModeCommand(args?: any): void</text></g></g><g><g><path fill="none" stroke="none"/><text fill="#000000" stroke="none" font-family="Arial" font-size="13px" font-style="normal" font-weight="normal" text-decoration="undefined" x="1192" y="618.5" text-anchor="start" dominant-baseline="central" transform="matrix(1 0 0 1 -702 -102)">+executeApproveRequirementCommand(req: any): Promise&lt;void&gt;</text></g></g><g><g><path fill="none" stroke="none"/><text fill="#000000" stroke="none" font-family="Arial" font-size="13px" font-style="normal" font-weight="normal" text-decoration="undefined" x="1192" y="633.5" text-anchor="start" dominant-baseline="central" transform="matrix(1 0 0 1 -702 -102)">+executeRefuseRequirementCommand(req: any): Promise&lt;void&gt;</text></g></g><g><g><path fill="none" stroke="none"/><text fill="#000000" stroke="none" font-family="Arial" font-size="13px" font-style="normal" font-weight="normal" text-decoration="undefined" x="1192" y="648.5" text-anchor="start" dominant-baseline="central" transform="matrix(1 0 0 1 -702 -102)">+executeEditTraceabilityCommand(item: any): Promise&lt;void&gt;</text></g></g><g><g><path fill="none" stroke="none"/><text fill="#000000" stroke="none" font-family="Arial" font-size="13px" font-style="normal" font-weight="normal" text-decoration="undefined" x="1192" y="663.5" text-anchor="start" dominant-baseline="central" transform="matrix(1 0 0 1 -702 -102)">-getStatusIcon(...): ThemeIcon()</text></g></g><g><g><path fill="none" stroke="none"/><text fill="#000000" stroke="none" font-family="Arial" font-size="13px" font-style="normal" font-weight="normal" text-decoration="undefined" x="1192" y="678.5" text-anchor="start" dominant-baseline="central" transform="matrix(1 0 0 1 -702 -102)">+getRequirementsDetails(): RequirementItem[]</text></g></g><g><rect fill="#C0C0C0" stroke="none" x="1655" y="455" width="329.71875" height="253" transform="matrix(1 0 0 1 -702 -102)" fill-opacity="0.2"/></g><g><rect fill="#ffffff" stroke="none" x="1648" y="448" width="329.71875" height="253" transform="matrix(1 0 0 1 -702 -102)"/></g><g><path fill="none" stroke="#000000" paint-order="fill stroke markers" d=" M 946 346 L 1275.71875 346 L 1275.71875 599 L 946 599 L 946 346 Z Z" stroke-miterlimit="10" stroke-dasharray=""/></g><g><path fill="none" stroke="#000000" paint-order="fill stroke markers" d=" M 946 386 L 1275.71875 386" stroke-miterlimit="10" stroke-dasharray=""/></g><g><path fill="none" stroke="#000000" paint-order="fill stroke markers" d=" M 946 589 L 1275.71875 589" stroke-miterlimit="10" stroke-dasharray=""/></g><g><g><path fill="none" stroke="none"/><text fill="#000000" stroke="none" font-family="Arial" font-size="13px" font-style="normal" font-weight="bold" text-decoration="undefined" x="1813.359375" y="461.5" text-anchor="middle" dominant-baseline="central" transform="matrix(1 0 0 1 -702 -102)">RequirementItem</text></g></g><g><g><path fill="none" stroke="none"/><text fill="#000000" stroke="none" font-family="Arial" font-size="13px" font-style="normal" font-weight="normal" text-decoration="undefined" x="1813.359375" y="476.5" text-anchor="middle" dominant-baseline="central" transform="matrix(1 0 0 1 -702 -102)">(from Presentation)</text></g></g><g><g><path fill="none" stroke="none"/><text fill="#000000" stroke="none" font-family="Arial" font-size="13px" font-style="normal" font-weight="normal" text-decoration="undefined" x="1653" y="499.5" text-anchor="start" dominant-baseline="central" transform="matrix(1 0 0 1 -702 -102)">+id: string</text></g></g><g><g><path fill="none" stroke="none"/><text fill="#000000" stroke="none" font-family="Arial" font-size="13px" font-style="normal" font-weight="normal" text-decoration="undefined" x="1653" y="514.5" text-anchor="start" dominant-baseline="central" transform="matrix(1 0 0 1 -702 -102)">+label: string</text></g></g><g><g><path fill="none" stroke="none"/><text fill="#000000" stroke="none" font-family="Arial" font-size="13px" font-style="normal" font-weight="normal" text-decoration="undefined" x="1653" y="529.5" text-anchor="start" dominant-baseline="central" transform="matrix(1 0 0 1 -702 -102)">+collapsibleState: vscode.TreeItemCollapsibleState</text></g></g><g><g><path fill="none" stroke="none"/><text fill="#000000" stroke="none" font-family="Arial" font-size="13px" font-style="normal" font-weight="normal" text-decoration="undefined" x="1653" y="544.5" text-anchor="start" dominant-baseline="central" transform="matrix(1 0 0 1 -702 -102)">+details?: RequirementItem[]</text></g></g><g><g><path fill="none" stroke="none"/><text fill="#000000" stroke="none" font-family="Arial" font-size="13px" font-style="normal" font-weight="normal" text-decoration="undefined" x="1653" y="559.5" text-anchor="start" dominant-baseline="central" transform="matrix(1 0 0 1 -702 -102)">+description?: string</text></g></g><g><g><path fill="none" stroke="none"/><text fill="#000000" stroke="none" font-family="Arial" font-size="13px" font-style="normal" font-weight="normal" text-decoration="undefined" x="1653" y="574.5" text-anchor="start" dominant-baseline="central" transform="matrix(1 0 0 1 -702 -102)">+contextValue?: string</text></g></g><g><g><path fill="none" stroke="none"/><text fill="#000000" stroke="none" font-family="Arial" font-size="13px" font-style="normal" font-weight="normal" text-decoration="undefined" x="1653" y="589.5" text-anchor="start" dominant-baseline="central" transform="matrix(1 0 0 1 -702 -102)">+filePath?: vscode.ThemeIcon</text></g></g><g><g><path fill="none" stroke="none"/><text fill="#000000" stroke="none" font-family="Arial" font-size="13px" font-style="normal" font-weight="normal" text-decoration="undefined" x="1653" y="604.5" text-anchor="start" dominant-baseline="central" transform="matrix(1 0 0 1 -702 -102)">+lineNumber?: number</text></g></g><g><g><path fill="none" stroke="none"/><text fill="#000000" stroke="none" font-family="Arial" font-size="13px" font-style="normal" font-weight="normal" text-decoration="undefined" x="1653" y="619.5" text-anchor="start" dominant-baseline="central" transform="matrix(1 0 0 1 -702 -102)">+endLineNumber?: number</text></g></g><g><g><path fill="none" stroke="none"/><text fill="#000000" stroke="none" font-family="Arial" font-size="13px" font-style="normal" font-weight="normal" text-decoration="undefined" x="1653" y="634.5" text-anchor="start" dominant-baseline="central" transform="matrix(1 0 0 1 -702 -102)">+customCommand?: vscode.Command</text></g></g><g><g><path fill="none" stroke="none"/><text fill="#000000" stroke="none" font-family="Arial" font-size="13px" font-style="normal" font-weight="normal" text-decoration="undefined" x="1653" y="649.5" text-anchor="start" dominant-baseline="central" transform="matrix(1 0 0 1 -702 -102)">+customIcon?: vscode.ThemeIcon</text></g></g><g><g><path fill="none" stroke="none"/><text fill="#000000" stroke="none" font-family="Arial" font-size="13px" font-style="normal" font-weight="normal" text-decoration="undefined" x="1653" y="664.5" text-anchor="start" dominant-baseline="central" transform="matrix(1 0 0 1 -702 -102)">+requirementId?: string</text></g></g><g><g><path fill="none" stroke="none"/><text fill="#000000" stroke="none" font-family="Arial" font-size="13px" font-style="normal" font-weight="normal" text-decoration="undefined" x="1653" y="679.5" text-anchor="start" dominant-baseline="central" transform="matrix(1 0 0 1 -702 -102)">+traceabilityIndex?: number</text></g></g><g><path fill="none" stroke="#000000" paint-order="fill stroke markers" d=" M 1193 199 L 1193 298 L 890 298" stroke-miterlimit="10" stroke-dasharray="3"/></g><g><path fill="none" stroke="#000000" paint-order="fill stroke markers" d=" M 900.1626748576241 293.790482243984 L 890 298 L 900.1626748576241 302.209517756016" stroke-miterlimit="10" stroke-dasharray=""/></g><g><rect fill="#C0C0C0" stroke="none" x="1127" y="791" width="262.4000000000001" height="15" transform="matrix(1 0 0 1 -702 -102)" fill-opacity="0.2"/></g><g><rect fill="#C0C0C0" stroke="none" x="1127" y="805" width="656" height="186" transform="matrix(1 0 0 1 -702 -102)" fill-opacity="0.2"/></g><g><rect fill="#ffffff" stroke="none" x="1120" y="799" width="656" height="185" transform="matrix(1 0 0 1 -702 -102)"/></g><g><path fill="none" stroke="#000000" paint-order="fill stroke markers" d=" M 418 697 L 1074 697 L 1074 882 L 418 882 L 418 697 Z Z" stroke-miterlimit="10" stroke-dasharray=""/></g><g><rect fill="#ffffff" stroke="none" x="1120" y="784" width="262.4000000000001" height="15" transform="matrix(1 0 0 1 -702 -102)"/></g><g><path fill="none" stroke="#000000" paint-order="fill stroke markers" d=" M 418 682 L 680.4000000000001 682 L 680.4000000000001 697 L 418 697 L 418 682 Z Z" stroke-miterlimit="10" stroke-dasharray=""/></g><g><rect fill="#ffffff" stroke="none" x="1120" y="798" width="656" height="186" transform="matrix(1 0 0 1 -702 -102)"/></g><g><path fill="none" stroke="#000000" paint-order="fill stroke markers" d=" M 418 696 L 1074 696 L 1074 882 L 418 882 L 418 696 Z Z" stroke-miterlimit="10" stroke-dasharray=""/></g><g><g><path fill="none" stroke="none"/><text fill="#000000" stroke="none" font-family="Arial" font-size="13px" font-style="normal" font-weight="bold" text-decoration="undefined" x="1448.5" y="812.5" text-anchor="middle" dominant-baseline="central" transform="matrix(1 0 0 1 -702 -102)">Application</text></g></g><g><rect fill="#C0C0C0" stroke="none" x="1839" y="815" width="115.20000000000005" height="15" transform="matrix(1 0 0 1 -702 -102)" fill-opacity="0.2"/></g><g><rect fill="#C0C0C0" stroke="none" x="1839" y="829" width="288" height="138" transform="matrix(1 0 0 1 -702 -102)" fill-opacity="0.2"/></g><g><rect fill="#ffffff" stroke="none" x="1832" y="823" width="288" height="137" transform="matrix(1 0 0 1 -702 -102)"/></g><g><path fill="none" stroke="#000000" paint-order="fill stroke markers" d=" M 1130 721 L 1418 721 L 1418 858 L 1130 858 L 1130 721 Z Z" stroke-miterlimit="10" stroke-dasharray=""/></g><g><rect fill="#ffffff" stroke="none" x="1832" y="808" width="115.20000000000005" height="15" transform="matrix(1 0 0 1 -702 -102)"/></g><g><path fill="none" stroke="#000000" paint-order="fill stroke markers" d=" M 1130 706 L 1245.2 706 L 1245.2 721 L 1130 721 L 1130 706 Z Z" stroke-miterlimit="10" stroke-dasharray=""/></g><g><rect fill="#ffffff" stroke="none" x="1832" y="822" width="288" height="138" transform="matrix(1 0 0 1 -702 -102)"/></g><g><path fill="none" stroke="#000000" paint-order="fill stroke markers" d=" M 1130 720 L 1418 720 L 1418 858 L 1130 858 L 1130 720 Z Z" stroke-miterlimit="10" stroke-dasharray=""/></g><g><g><path fill="none" stroke="none"/><text fill="#000000" stroke="none" font-family="Arial" font-size="13px" font-style="normal" font-weight="bold" text-decoration="undefined" x="1976.5" y="836.5" text-anchor="middle" dominant-baseline="central" transform="matrix(1 0 0 1 -702 -102)">vscode</text></g></g><g><rect fill="#C0C0C0" stroke="none" x="2015" y="879" width="89.4599609375" height="60" transform="matrix(1 0 0 1 -702 -102)" fill-opacity="0.2"/></g><g><rect fill="#ffffff" stroke="none" x="2008" y="872" width="89.4599609375" height="60" transform="matrix(1 0 0 1 -702 -102)"/></g><g><path fill="none" stroke="#000000" paint-order="fill stroke markers" d=" M 1306 770 L 1395.4599609375 770 L 1395.4599609375 830 L 1306 830 L 1306 770 Z Z" stroke-miterlimit="10" stroke-dasharray=""/></g><g><path fill="none" stroke="#000000" paint-order="fill stroke markers" d=" M 1306 810 L 1395.4599609375 810" stroke-miterlimit="10" stroke-dasharray=""/></g><g><path fill="none" stroke="#000000" paint-order="fill stroke markers" d=" M 1306 820 L 1395.4599609375 820" stroke-miterlimit="10" stroke-dasharray=""/></g><g><g><path fill="none" stroke="none"/><text fill="#000000" stroke="none" font-family="Arial" font-size="13px" font-style="normal" font-weight="bold" text-decoration="undefined" x="2053.22998046875" y="885.5" text-anchor="middle" dominant-baseline="central" transform="matrix(1 0 0 1 -702 -102)">TreeItem</text></g></g><g><g><path fill="none" stroke="none"/><text fill="#000000" stroke="none" font-family="Arial" font-size="13px" font-style="normal" font-weight="normal" text-decoration="undefined" x="2053.22998046875" y="900.5" text-anchor="middle" dominant-baseline="central" transform="matrix(1 0 0 1 -702 -102)">(from vscode)</text></g></g><g><rect fill="#C0C0C0" stroke="none" x="1863" y="879" width="117.66259765625" height="60" transform="matrix(1 0 0 1 -702 -102)" fill-opacity="0.2"/></g><g><rect fill="#ffffff" stroke="none" x="1856" y="872" width="117.66259765625" height="60" transform="matrix(1 0 0 1 -702 -102)"/></g><g><path fill="none" stroke="#000000" paint-order="fill stroke markers" d=" M 1154 770 L 1271.66259765625 770 L 1271.66259765625 830 L 1154 830 L 1154 770 Z Z" stroke-miterlimit="10" stroke-dasharray=""/></g><g><path fill="none" stroke="#000000" paint-order="fill stroke markers" d=" M 1154 810 L 1271.66259765625 810" stroke-miterlimit="10" stroke-dasharray=""/></g><g><path fill="none" stroke="#000000" paint-order="fill stroke markers" d=" M 1154 820 L 1271.66259765625 820" stroke-miterlimit="10" stroke-dasharray=""/></g><g><g><path fill="none" stroke="none"/><text fill="#000000" stroke="none" font-family="Arial" font-size="13px" font-style="normal" font-weight="bold" text-decoration="undefined" x="1915.331298828125" y="885.5" text-anchor="middle" dominant-baseline="central" transform="matrix(1 0 0 1 -702 -102)">TreeDataProvider</text></g></g><g><g><path fill="none" stroke="none"/><text fill="#000000" stroke="none" font-family="Arial" font-size="13px" font-style="normal" font-weight="normal" text-decoration="undefined" x="1915.331298828125" y="900.5" text-anchor="middle" dominant-baseline="central" transform="matrix(1 0 0 1 -702 -102)">(from vscode)</text></g></g><g><path fill="none" stroke="#000000" paint-order="fill stroke markers" d=" M 1276 450 L 1350 450 L 1350 770" stroke-miterlimit="10" stroke-dasharray=""/></g><g><path fill="#FFFFFF" stroke="none" paint-order="stroke fill markers" d=" M 1341.580964487968 749.6746502847517 L 1350 770 L 1358.4190355120318 749.6746502847517"/></g><g><path fill="none" stroke="#000000" paint-order="fill stroke markers" d=" M 1341.580964487968 749.6746502847517 L 1350 770 L 1358.4190355120318 749.6746502847517 L 1341.580964487968 749.6746502847517" stroke-miterlimit="10" stroke-dasharray=""/></g><g><path fill="none" stroke="#000000" paint-order="fill stroke markers" d=" M 842 588 L 842 626 L 1210 626 L 1210 770" stroke-miterlimit="10" stroke-dasharray=""/></g><g><path fill="#FFFFFF" stroke="none" paint-order="stroke fill markers" d=" M 1201.580964487968 749.6746502847517 L 1210 770 L 1218.419035512032 749.6746502847517"/></g><g><path fill="none" stroke="#000000" paint-order="fill stroke markers" d=" M 1201.580964487968 749.6746502847517 L 1210 770 L 1218.419035512032 749.6746502847517 L 1201.580964487968 749.6746502847517" stroke-miterlimit="10" stroke-dasharray=""/></g><g><path fill="none" stroke="#000000" paint-order="fill stroke markers" d=" M 683 810 A 12 12 0 0 1 683 786" stroke-miterlimit="10" stroke-dasharray=""/></g><g><g><path fill="none" stroke="none"/><text fill="#000000" stroke="none" font-family="Arial" font-size="13px" font-style="normal" font-weight="bold" text-decoration="undefined" x="1385.78173828125" y="925.5" text-anchor="middle" dominant-baseline="central" transform="matrix(1 0 0 1 -702 -102)">IRequirementsService</text></g></g><g><g><path fill="none" stroke="none"/><text fill="#000000" stroke="none" font-family="Arial" font-size="13px" font-style="normal" font-weight="normal" text-decoration="undefined" x="1385.78173828125" y="940.5" text-anchor="middle" dominant-baseline="central" transform="matrix(1 0 0 1 -702 -102)">(from Application)</text></g></g><g><path fill="none" stroke="#000000" paint-order="fill stroke markers" d=" M 683 785 L 685 589" stroke-miterlimit="10" stroke-dasharray=""/></g><g><path fill="#FFFFFF" stroke="none" paint-order="stroke fill markers" d=" M 689.1056032532838 599.20509784013 L 685 589 L 680.6870060158303 599.1191937866867 L 684.7755218904763 610.9988547333343"/></g><g><path fill="none" stroke="#000000" paint-order="fill stroke markers" d=" M 689.1056032532838 599.20509784013 L 685 589 L 680.6870060158303 599.1191937866867 L 684.7755218904763 610.9988547333343 L 689.1056032532838 599.20509784013" stroke-miterlimit="10" stroke-dasharray=""/></g><g><path fill="none" stroke="#000000" paint-order="fill stroke markers" d=" M 248 426 L 248 798 L 671.28173828125 798" stroke-miterlimit="10" stroke-dasharray=""/></g><g><path fill="none" stroke="#000000" paint-order="fill stroke markers" d=" M 343 386 L 485 386" stroke-miterlimit="10" stroke-dasharray="3"/></g><g><path fill="none" stroke="#000000" paint-order="fill stroke markers" d=" M 474.8373251423759 390.209517756016 L 485 386 L 474.8373251423759 381.790482243984" stroke-miterlimit="10" stroke-dasharray=""/></g><g><rect fill="#C0C0C0" stroke="none" x="1642" y="235" width="701.361328125" height="73" transform="matrix(1 0 0 1 -702 -102)" fill-opacity="0.2"/></g><g><rect fill="#ffffff" stroke="none" x="1635" y="228" width="701.361328125" height="73" transform="matrix(1 0 0 1 -702 -102)"/></g><g><path fill="none" stroke="#000000" paint-order="fill stroke markers" d=" M 933 126 L 1634.361328125 126 L 1634.361328125 199 L 933 199 L 933 126 Z Z" stroke-miterlimit="10" stroke-dasharray=""/></g><g><path fill="none" stroke="#000000" paint-order="fill stroke markers" d=" M 933 166 L 1634.361328125 166" stroke-miterlimit="10" stroke-dasharray=""/></g><g><path fill="none" stroke="#000000" paint-order="fill stroke markers" d=" M 933 176 L 1634.361328125 176" stroke-miterlimit="10" stroke-dasharray=""/></g><g><g><path fill="none" stroke="none"/><text fill="#000000" stroke="none" font-family="Arial" font-size="13px" font-style="normal" font-weight="bold" text-decoration="undefined" x="1986.1806640625" y="241.5" text-anchor="middle" dominant-baseline="central" transform="matrix(1 0 0 1 -702 -102)">Commands</text></g></g><g><g><path fill="none" stroke="none"/><text fill="#000000" stroke="none" font-family="Arial" font-size="13px" font-style="normal" font-weight="normal" text-decoration="undefined" x="1986.1806640625" y="256.5" text-anchor="middle" dominant-baseline="central" transform="matrix(1 0 0 1 -702 -102)">(from Presentation)</text></g></g><g><g><path fill="none" stroke="none"/><text fill="#000000" stroke="none" font-family="Arial" font-size="13px" font-style="normal" font-weight="normal" text-decoration="undefined" x="1640" y="289.5" text-anchor="start" dominant-baseline="central" transform="matrix(1 0 0 1 -702 -102)">+registerCommands(context: vscode.ExtensionContext, treeDataProvider: RequirementsTreeDataProvider): void</text></g></g><g><rect fill="#C0C0C0" stroke="none" x="1535" y="839" width="141.22509765625" height="121" transform="matrix(1 0 0 1 -702 -102)" fill-opacity="0.2"/></g><g><rect fill="#ffffff" stroke="none" x="1528" y="832" width="141.22509765625" height="121" transform="matrix(1 0 0 1 -702 -102)"/></g><g><path fill="none" stroke="#000000" paint-order="fill stroke markers" d=" M 826 730 L 967.22509765625 730 L 967.22509765625 851 L 826 851 L 826 730 Z Z" stroke-miterlimit="10" stroke-dasharray=""/></g><g><path fill="none" stroke="#000000" paint-order="fill stroke markers" d=" M 826 783 L 967.22509765625 783" stroke-miterlimit="10" stroke-dasharray=""/></g><g><g><path fill="none" stroke="none"/><text fill="#000000" stroke="none" font-family="Arial" font-size="13px" font-style="normal" font-weight="normal" text-decoration="undefined" x="1599.112548828125" y="843.5" text-anchor="middle" dominant-baseline="central" transform="matrix(1 0 0 1 -702 -102)">«enumeration»</text></g></g><g><g><path fill="none" stroke="none"/><text fill="#000000" stroke="none" font-family="Arial" font-size="13px" font-style="normal" font-weight="bold" text-decoration="undefined" x="1599.112548828125" y="858.5" text-anchor="middle" dominant-baseline="central" transform="matrix(1 0 0 1 -702 -102)">SortMode</text></g></g><g><g><path fill="none" stroke="none"/><text fill="#000000" stroke="none" font-family="Arial" font-size="13px" font-style="normal" font-weight="normal" text-decoration="undefined" x="1599.112548828125" y="873.5" text-anchor="middle" dominant-baseline="central" transform="matrix(1 0 0 1 -702 -102)">(from Application)</text></g></g><g><g><path fill="none" stroke="none"/><text fill="#000000" stroke="none" font-family="Arial" font-size="13px" font-style="normal" font-weight="normal" text-decoration="undefined" x="1533" y="896.5" text-anchor="start" dominant-baseline="central" transform="matrix(1 0 0 1 -702 -102)">DEFAULT</text></g></g><g><g><path fill="none" stroke="none"/><text fill="#000000" stroke="none" font-family="Arial" font-size="13px" font-style="normal" font-weight="normal" text-decoration="undefined" x="1533" y="911.5" text-anchor="start" dominant-baseline="central" transform="matrix(1 0 0 1 -702 -102)">ID_ASC</text></g></g><g><g><path fill="none" stroke="none"/><text fill="#000000" stroke="none" font-family="Arial" font-size="13px" font-style="normal" font-weight="normal" text-decoration="undefined" x="1533" y="926.5" text-anchor="start" dominant-baseline="central" transform="matrix(1 0 0 1 -702 -102)">ANALYZED_FIRST</text></g></g><g><g><path fill="none" stroke="none"/><text fill="#000000" stroke="none" font-family="Arial" font-size="13px" font-style="normal" font-weight="normal" text-decoration="undefined" x="1533" y="941.5" text-anchor="start" dominant-baseline="central" transform="matrix(1 0 0 1 -702 -102)">UNANALYZED_FIRST</text></g></g><g><path fill="none" stroke="#000000" paint-order="fill stroke markers" d=" M 1578 199 L 1578 914 L 898 914 L 898 851" stroke-miterlimit="10" stroke-dasharray="3"/></g><g><path fill="none" stroke="#000000" paint-order="fill stroke markers" d=" M 902.2095177560159 861.1626748576241 L 898 851 L 893.7904822439841 861.1626748576241" stroke-miterlimit="10" stroke-dasharray=""/></g><g><path fill="none" stroke="#000000" paint-order="fill stroke markers" d=" M 890 454 L 946 454" stroke-miterlimit="10" stroke-dasharray="3"/></g><g><path fill="none" stroke="#000000" paint-order="fill stroke markers" d=" M 935.8373251423759 458.209517756016 L 946 454 L 935.8373251423759 449.790482243984" stroke-miterlimit="10" stroke-dasharray=""/></g></g></svg>