<svg version="1.1" xmlns="http://www.w3.org/2000/svg" xmlns:xlink="http://www.w3.org/1999/xlink" width="1789.4326171875" height="748"><defs/><g><g><path fill="none" stroke="#000000" paint-order="fill stroke markers" d=" M 1710 338 A 12 12 0 0 1 1710 314" stroke-miterlimit="10" stroke-dasharray=""/></g><g><g><path fill="none" stroke="none"/><text fill="#000000" stroke="none" font-family="Arial" font-size="13px" font-style="normal" font-weight="bold" text-decoration="undefined" x="2172.71630859375" y="2061.5" text-anchor="middle" dominant-baseline="central" transform="matrix(1 0 0 1 -462 -1710)">OllamaAPI</text></g></g><g><g><path fill="none" stroke="none"/><text fill="#000000" stroke="none" font-family="Arial" font-size="13px" font-style="normal" font-weight="normal" text-decoration="undefined" x="2172.71630859375" y="2076.5" text-anchor="middle" dominant-baseline="central" transform="matrix(1 0 0 1 -462 -1710)">(from Ollama)</text></g></g><g><rect fill="#C0C0C0" stroke="none" x="543" y="1727" width="128" height="15" transform="matrix(1 0 0 1 -462 -1710)" fill-opacity="0.2"/></g><g><rect fill="#C0C0C0" stroke="none" x="543" y="1741" width="320" height="138" transform="matrix(1 0 0 1 -462 -1710)" fill-opacity="0.2"/></g><g><rect fill="#ffffff" stroke="none" x="536" y="1735" width="320" height="137" transform="matrix(1 0 0 1 -462 -1710)"/></g><g><path fill="none" stroke="#000000" paint-order="fill stroke markers" d=" M 74 25 L 394 25 L 394 162 L 74 162 L 74 25 Z Z" stroke-miterlimit="10" stroke-dasharray=""/></g><g><rect fill="#ffffff" stroke="none" x="536" y="1720" width="128" height="15" transform="matrix(1 0 0 1 -462 -1710)"/></g><g><path fill="none" stroke="#000000" paint-order="fill stroke markers" d=" M 74 10 L 202 10 L 202 25 L 74 25 L 74 10 Z Z" stroke-miterlimit="10" stroke-dasharray=""/></g><g><rect fill="#ffffff" stroke="none" x="536" y="1734" width="320" height="138" transform="matrix(1 0 0 1 -462 -1710)"/></g><g><path fill="none" stroke="#000000" paint-order="fill stroke markers" d=" M 74 24 L 394 24 L 394 162 L 74 162 L 74 24 Z Z" stroke-miterlimit="10" stroke-dasharray=""/></g><g><g><path fill="none" stroke="none"/><text fill="#000000" stroke="none" font-family="Arial" font-size="13px" font-style="normal" font-weight="bold" text-decoration="undefined" x="696.5" y="1748.5" text-anchor="middle" dominant-baseline="central" transform="matrix(1 0 0 1 -462 -1710)">Application</text></g></g><g><g><path fill="none" stroke="none"/><text fill="#000000" stroke="none" font-family="Arial" font-size="13px" font-style="normal" font-weight="normal" text-decoration="undefined" x="696.5" y="1763.5" text-anchor="middle" dominant-baseline="central" transform="matrix(1 0 0 1 -462 -1710)">(from Model)</text></g></g><g><rect fill="#C0C0C0" stroke="none" x="607" y="1791" width="188.42626953125" height="60" transform="matrix(1 0 0 1 -462 -1710)" fill-opacity="0.2"/></g><g><rect fill="#ffffff" stroke="none" x="600" y="1784" width="188.42626953125" height="60" transform="matrix(1 0 0 1 -462 -1710)"/></g><g><path fill="none" stroke="#000000" paint-order="fill stroke markers" d=" M 138 74 L 326.42626953125 74 L 326.42626953125 134 L 138 134 L 138 74 Z Z" stroke-miterlimit="10" stroke-dasharray=""/></g><g><path fill="none" stroke="#000000" paint-order="fill stroke markers" d=" M 138 114 L 326.42626953125 114" stroke-miterlimit="10" stroke-dasharray=""/></g><g><path fill="none" stroke="#000000" paint-order="fill stroke markers" d=" M 138 124 L 326.42626953125 124" stroke-miterlimit="10" stroke-dasharray=""/></g><g><g><path fill="none" stroke="none"/><text fill="#000000" stroke="none" font-family="Arial" font-size="13px" font-style="normal" font-weight="bold" text-decoration="undefined" x="694.713134765625" y="1797.5" text-anchor="middle" dominant-baseline="central" transform="matrix(1 0 0 1 -462 -1710)">RequirementAnalysisModule</text></g></g><g><g><path fill="none" stroke="none"/><text fill="#000000" stroke="none" font-family="Arial" font-size="13px" font-style="normal" font-weight="normal" text-decoration="undefined" x="694.713134765625" y="1812.5" text-anchor="middle" dominant-baseline="central" transform="matrix(1 0 0 1 -462 -1710)">(from Application)</text></g></g><g><rect fill="#C0C0C0" stroke="none" x="479" y="1903" width="649.5999999999999" height="15" transform="matrix(1 0 0 1 -462 -1710)" fill-opacity="0.2"/></g><g><rect fill="#C0C0C0" stroke="none" x="479" y="1917" width="1624" height="290" transform="matrix(1 0 0 1 -462 -1710)" fill-opacity="0.2"/></g><g><rect fill="#ffffff" stroke="none" x="472" y="1911" width="1624" height="289" transform="matrix(1 0 0 1 -462 -1710)"/></g><g><path fill="none" stroke="#000000" paint-order="fill stroke markers" d=" M 10 201 L 1634 201 L 1634 490 L 10 490 L 10 201 Z Z" stroke-miterlimit="10" stroke-dasharray=""/></g><g><rect fill="#ffffff" stroke="none" x="472" y="1896" width="649.5999999999999" height="15" transform="matrix(1 0 0 1 -462 -1710)"/></g><g><path fill="none" stroke="#000000" paint-order="fill stroke markers" d=" M 10 186 L 659.5999999999999 186 L 659.5999999999999 201 L 10 201 L 10 186 Z Z" stroke-miterlimit="10" stroke-dasharray=""/></g><g><rect fill="#ffffff" stroke="none" x="472" y="1910" width="1624" height="290" transform="matrix(1 0 0 1 -462 -1710)"/></g><g><path fill="none" stroke="#000000" paint-order="fill stroke markers" d=" M 10 200 L 1634 200 L 1634 490 L 10 490 L 10 200 Z Z" stroke-miterlimit="10" stroke-dasharray=""/></g><g><g><path fill="none" stroke="none"/><text fill="#000000" stroke="none" font-family="Arial" font-size="13px" font-style="normal" font-weight="bold" text-decoration="undefined" x="1284.5" y="1924.5" text-anchor="middle" dominant-baseline="central" transform="matrix(1 0 0 1 -462 -1710)">Adapters</text></g></g><g><g><path fill="none" stroke="none"/><text fill="#000000" stroke="none" font-family="Arial" font-size="13px" font-style="normal" font-weight="normal" text-decoration="undefined" x="1284.5" y="1939.5" text-anchor="middle" dominant-baseline="central" transform="matrix(1 0 0 1 -462 -1710)">(from Model)</text></g></g><g><rect fill="#C0C0C0" stroke="none" x="519" y="1975" width="372.35595703125" height="101" transform="matrix(1 0 0 1 -462 -1710)" fill-opacity="0.2"/></g><g><rect fill="#ffffff" stroke="none" x="512" y="1968" width="372.35595703125" height="101" transform="matrix(1 0 0 1 -462 -1710)"/></g><g><path fill="none" stroke="#000000" paint-order="fill stroke markers" d=" M 50 258 L 422.35595703125 258 L 422.35595703125 359 L 50 359 L 50 258 Z Z" stroke-miterlimit="10" stroke-dasharray=""/></g><g><path fill="none" stroke="#000000" paint-order="fill stroke markers" d=" M 50 298 L 422.35595703125 298" stroke-miterlimit="10" stroke-dasharray=""/></g><g><path fill="none" stroke="#000000" paint-order="fill stroke markers" d=" M 50 321 L 422.35595703125 321" stroke-miterlimit="10" stroke-dasharray=""/></g><g><g><path fill="none" stroke="none"/><text fill="#000000" stroke="none" font-family="Arial" font-size="13px" font-style="normal" font-weight="bold" text-decoration="undefined" x="698.677978515625" y="1981.5" text-anchor="middle" dominant-baseline="central" transform="matrix(1 0 0 1 -462 -1710)">RequirementAnalysisController</text></g></g><g><g><path fill="none" stroke="none"/><text fill="#000000" stroke="none" font-family="Arial" font-size="13px" font-style="normal" font-weight="normal" text-decoration="undefined" x="698.677978515625" y="1996.5" text-anchor="middle" dominant-baseline="central" transform="matrix(1 0 0 1 -462 -1710)">(from Adapters)</text></g></g><g><g><path fill="none" stroke="none"/><text fill="#000000" stroke="none" font-family="Arial" font-size="13px" font-style="normal" font-weight="normal" text-decoration="undefined" x="517" y="2019.5" text-anchor="start" dominant-baseline="central" transform="matrix(1 0 0 1 -462 -1710)">+requirementAnalysisUseCase: RequirementAnalysisUseCase</text></g></g><g><g><path fill="none" stroke="none"/><text fill="#000000" stroke="none" font-family="Arial" font-size="13px" font-style="normal" font-weight="normal" text-decoration="undefined" x="517" y="2042.5" text-anchor="start" dominant-baseline="central" transform="matrix(1 0 0 1 -462 -1710)">+analyzeRequirement(analyzeDto: AnalyzeRequirementDto)</text></g></g><g><g><path fill="none" stroke="none"/><text fill="#000000" stroke="none" font-family="Arial" font-size="13px" font-style="normal" font-weight="normal" text-decoration="undefined" x="517" y="2057.5" text-anchor="start" dominant-baseline="central" transform="matrix(1 0 0 1 -462 -1710)">+getEmbedding(request: GetEmbeddingRequestDto)</text></g></g><g><path fill="none" stroke="#000000" paint-order="fill stroke markers" d=" M 1579 326 L 1698.21630859375 326" stroke-miterlimit="10" stroke-dasharray=""/></g><g><rect fill="#C0C0C0" stroke="none" x="479" y="2223" width="592" height="15" transform="matrix(1 0 0 1 -462 -1710)" fill-opacity="0.2"/></g><g><rect fill="#C0C0C0" stroke="none" x="479" y="2237" width="1480" height="218" transform="matrix(1 0 0 1 -462 -1710)" fill-opacity="0.2"/></g><g><rect fill="#ffffff" stroke="none" x="472" y="2231" width="1480" height="217" transform="matrix(1 0 0 1 -462 -1710)"/></g><g><path fill="none" stroke="#000000" paint-order="fill stroke markers" d=" M 10 521 L 1490 521 L 1490 738 L 10 738 L 10 521 Z Z" stroke-miterlimit="10" stroke-dasharray=""/></g><g><rect fill="#ffffff" stroke="none" x="472" y="2216" width="592" height="15" transform="matrix(1 0 0 1 -462 -1710)"/></g><g><path fill="none" stroke="#000000" paint-order="fill stroke markers" d=" M 10 506 L 602 506 L 602 521 L 10 521 L 10 506 Z Z" stroke-miterlimit="10" stroke-dasharray=""/></g><g><rect fill="#ffffff" stroke="none" x="472" y="2230" width="1480" height="218" transform="matrix(1 0 0 1 -462 -1710)"/></g><g><path fill="none" stroke="#000000" paint-order="fill stroke markers" d=" M 10 520 L 1490 520 L 1490 738 L 10 738 L 10 520 Z Z" stroke-miterlimit="10" stroke-dasharray=""/></g><g><g><path fill="none" stroke="none"/><text fill="#000000" stroke="none" font-family="Arial" font-size="13px" font-style="normal" font-weight="bold" text-decoration="undefined" x="1212.5" y="2244.5" text-anchor="middle" dominant-baseline="central" transform="matrix(1 0 0 1 -462 -1710)">Domain</text></g></g><g><g><path fill="none" stroke="none"/><text fill="#000000" stroke="none" font-family="Arial" font-size="13px" font-style="normal" font-weight="normal" text-decoration="undefined" x="1212.5" y="2259.5" text-anchor="middle" dominant-baseline="central" transform="matrix(1 0 0 1 -462 -1710)">(from Model)</text></g></g><g><path fill="none" stroke="#000000" paint-order="fill stroke markers" d=" M 782 356 L 783 577" stroke-miterlimit="10" stroke-dasharray=""/></g><g><path fill="#C0C0C0" stroke="none" paint-order="stroke fill markers" d=" M 778.410400390625 596 C 778.410400390625 589.3725823999998 783.782982790625 584 790.410400390625 584 C 797.037817990625 584 802.410400390625 589.3725823999998 802.410400390625 596 C 802.410400390625 602.6274176000002 797.037817990625 608 790.410400390625 608 C 783.782982790625 608 778.410400390625 602.6274176000002 778.410400390625 596 Z" fill-opacity="0.2"/></g><g><path fill="#ffffff" stroke="none" paint-order="stroke fill markers" d=" M 771.410400390625 589 C 771.410400390625 582.3725823999998 776.782982790625 577 783.410400390625 577 C 790.037817990625 577 795.410400390625 582.3725823999998 795.410400390625 589 C 795.410400390625 595.6274176000002 790.037817990625 601 783.410400390625 601 C 776.782982790625 601 771.410400390625 595.6274176000002 771.410400390625 589 Z"/></g><g><path fill="none" stroke="#000000" paint-order="fill stroke markers" d=" M 771.410400390625 589 C 771.410400390625 582.3725823999998 776.782982790625 577 783.410400390625 577 C 790.037817990625 577 795.410400390625 582.3725823999998 795.410400390625 589 C 795.410400390625 595.6274176000002 790.037817990625 601 783.410400390625 601 C 776.782982790625 601 771.410400390625 595.6274176000002 771.410400390625 589 Z" stroke-miterlimit="10" stroke-dasharray=""/></g><g><g><path fill="none" stroke="none"/><text fill="#000000" stroke="none" font-family="Arial" font-size="13px" font-style="normal" font-weight="bold" text-decoration="undefined" x="1245.910400390625" y="2324.5" text-anchor="middle" dominant-baseline="central" transform="matrix(1 0 0 1 -462 -1710)">JsonParserPort</text></g></g><g><path fill="none" stroke="#000000" paint-order="fill stroke markers" d=" M 1370 414 L 1370 570" stroke-miterlimit="10" stroke-dasharray=""/></g><g><path fill="none" stroke="#000000" paint-order="fill stroke markers" d=" M 1022 356 L 1021 570" stroke-miterlimit="10" stroke-dasharray=""/></g><g><path fill="none" stroke="#000000" paint-order="fill stroke markers" d=" M 235 257 L 233 135" stroke-miterlimit="10" stroke-dasharray=""/></g><g><path fill="#000000" stroke="none" paint-order="stroke fill markers" d=" M 237.37553107172334 145.09231033214814 L 233 135 L 228.95762661840706 145.230308765809 L 233.36060728526468 156.99704440114192"/></g><g><path fill="none" stroke="#000000" paint-order="fill stroke markers" d=" M 237.37553107172334 145.09231033214814 L 233 135 L 228.95762661840706 145.230308765809 L 233.36060728526468 156.99704440114192 L 237.37553107172334 145.09231033214814" stroke-miterlimit="10" stroke-dasharray=""/></g><g><path fill="none" stroke="#000000" paint-order="fill stroke markers" d=" M 786 282 L 786 114 L 326 114" stroke-miterlimit="10" stroke-dasharray=""/></g><g><path fill="#000000" stroke="none" paint-order="stroke fill markers" d=" M 336.1626748576241 109.79048224398412 L 326 114 L 336.1626748576241 118.20951775601588 L 348 114"/></g><g><path fill="none" stroke="#000000" paint-order="fill stroke markers" d=" M 336.1626748576241 109.79048224398412 L 326 114 L 336.1626748576241 118.20951775601588 L 348 114 L 336.1626748576241 109.79048224398412" stroke-miterlimit="10" stroke-dasharray=""/></g><g><path fill="#C0C0C0" stroke="none" paint-order="stroke fill markers" d=" M 230.929443359375 589 C 230.929443359375 582.3725823999998 236.30202575937506 577 242.929443359375 577 C 249.55686095937494 577 254.929443359375 582.3725823999998 254.929443359375 589 C 254.929443359375 595.6274176000002 249.55686095937494 601 242.929443359375 601 C 236.30202575937506 601 230.929443359375 595.6274176000002 230.929443359375 589 Z" fill-opacity="0.2"/></g><g><path fill="#ffffff" stroke="none" paint-order="stroke fill markers" d=" M 223.929443359375 582 C 223.929443359375 575.3725823999998 229.30202575937506 570 235.929443359375 570 C 242.55686095937494 570 247.929443359375 575.3725823999998 247.929443359375 582 C 247.929443359375 588.6274176000002 242.55686095937494 594 235.929443359375 594 C 229.30202575937506 594 223.929443359375 588.6274176000002 223.929443359375 582 Z"/></g><g><path fill="none" stroke="#000000" paint-order="fill stroke markers" d=" M 223.929443359375 582 C 223.929443359375 575.3725823999998 229.30202575937506 570 235.929443359375 570 C 242.55686095937494 570 247.929443359375 575.3725823999998 247.929443359375 582 C 247.929443359375 588.6274176000002 242.55686095937494 594 235.929443359375 594 C 229.30202575937506 594 223.929443359375 588.6274176000002 223.929443359375 582 Z" stroke-miterlimit="10" stroke-dasharray=""/></g><g><g><path fill="none" stroke="none"/><text fill="#000000" stroke="none" font-family="Arial" font-size="13px" font-style="normal" font-weight="bold" text-decoration="undefined" x="698.429443359375" y="2317.5" text-anchor="middle" dominant-baseline="central" transform="matrix(1 0 0 1 -462 -1710)">RequirementAnalysisUseCase</text></g></g><g><g><path fill="none" stroke="none"/><text fill="#000000" stroke="none" font-family="Arial" font-size="13px" font-style="normal" font-weight="normal" text-decoration="undefined" x="698.429443359375" y="2332.5" text-anchor="middle" dominant-baseline="central" transform="matrix(1 0 0 1 -462 -1710)">(from Domain)</text></g></g><g><path fill="none" stroke="#000000" paint-order="fill stroke markers" d=" M 234 359 L 234 570" stroke-miterlimit="10" stroke-dasharray=""/></g><g><path fill="none" stroke="#000000" paint-order="fill stroke markers" d=" M 229.790482243984 559.8373251423759 L 234 570 L 238.209517756016 559.8373251423759" stroke-miterlimit="10" stroke-dasharray=""/></g><g><path fill="none" stroke="#000000" paint-order="fill stroke markers" d=" M 1275 413 L 1275 594 L 1086 594" stroke-miterlimit="10" stroke-dasharray=""/></g><g><path fill="none" stroke="#000000" paint-order="fill stroke markers" d=" M 1096.162674857624 589.7904822439841 L 1086 594 L 1096.162674857624 598.2095177560159" stroke-miterlimit="10" stroke-dasharray=""/></g><g><path fill="none" stroke="#000000" paint-order="fill stroke markers" d=" M 274 359 L 274 458 L 426 458 L 426 538" stroke-miterlimit="10" stroke-dasharray="3"/></g><g><path fill="none" stroke="#000000" paint-order="fill stroke markers" d=" M 421.790482243984 527.8373251423759 L 426 538 L 430.209517756016 527.8373251423759" stroke-miterlimit="10" stroke-dasharray=""/></g><g><path fill="none" stroke="#000000" paint-order="fill stroke markers" d=" M 298 359 L 298 442 L 538 442 L 538 602" stroke-miterlimit="10" stroke-dasharray="3"/></g><g><path fill="none" stroke="#000000" paint-order="fill stroke markers" d=" M 533.790482243984 591.8373251423759 L 538 602 L 542.209517756016 591.8373251423759" stroke-miterlimit="10" stroke-dasharray=""/></g><g><rect fill="#C0C0C0" stroke="none" x="871" y="2319" width="175.39453125" height="60" transform="matrix(1 0 0 1 -462 -1710)" fill-opacity="0.2"/></g><g><rect fill="#ffffff" stroke="none" x="864" y="2312" width="175.39453125" height="60" transform="matrix(1 0 0 1 -462 -1710)"/></g><g><path fill="none" stroke="#000000" paint-order="fill stroke markers" d=" M 402 602 L 577.39453125 602 L 577.39453125 662 L 402 662 L 402 602 Z Z" stroke-miterlimit="10" stroke-dasharray=""/></g><g><path fill="none" stroke="#000000" paint-order="fill stroke markers" d=" M 402 642 L 577.39453125 642" stroke-miterlimit="10" stroke-dasharray=""/></g><g><path fill="none" stroke="#000000" paint-order="fill stroke markers" d=" M 402 652 L 577.39453125 652" stroke-miterlimit="10" stroke-dasharray=""/></g><g><g><path fill="none" stroke="none"/><text fill="#000000" stroke="none" font-family="Arial" font-size="13px" font-style="normal" font-weight="bold" text-decoration="undefined" x="952.197265625" y="2325.5" text-anchor="middle" dominant-baseline="central" transform="matrix(1 0 0 1 -462 -1710)">GetEmbeddingRequestDto</text></g></g><g><g><path fill="none" stroke="none"/><text fill="#000000" stroke="none" font-family="Arial" font-size="13px" font-style="normal" font-weight="normal" text-decoration="undefined" x="952.197265625" y="2340.5" text-anchor="middle" dominant-baseline="central" transform="matrix(1 0 0 1 -462 -1710)">(from Domain)</text></g></g><g><path fill="none" stroke="#000000" paint-order="fill stroke markers" d=" M 322 359 L 322 418 L 610 418 L 610 666" stroke-miterlimit="10" stroke-dasharray="3"/></g><g><path fill="none" stroke="#000000" paint-order="fill stroke markers" d=" M 605.7904822439841 655.8373251423759 L 610 666 L 614.2095177560159 655.8373251423759" stroke-miterlimit="10" stroke-dasharray=""/></g><g><rect fill="#C0C0C0" stroke="none" x="935" y="2383" width="186.236328125" height="60" transform="matrix(1 0 0 1 -462 -1710)" fill-opacity="0.2"/></g><g><rect fill="#ffffff" stroke="none" x="928" y="2376" width="186.236328125" height="60" transform="matrix(1 0 0 1 -462 -1710)"/></g><g><path fill="none" stroke="#000000" paint-order="fill stroke markers" d=" M 466 666 L 652.236328125 666 L 652.236328125 726 L 466 726 L 466 666 Z Z" stroke-miterlimit="10" stroke-dasharray=""/></g><g><path fill="none" stroke="#000000" paint-order="fill stroke markers" d=" M 466 706 L 652.236328125 706" stroke-miterlimit="10" stroke-dasharray=""/></g><g><path fill="none" stroke="#000000" paint-order="fill stroke markers" d=" M 466 716 L 652.236328125 716" stroke-miterlimit="10" stroke-dasharray=""/></g><g><g><path fill="none" stroke="none"/><text fill="#000000" stroke="none" font-family="Arial" font-size="13px" font-style="normal" font-weight="bold" text-decoration="undefined" x="1021.6181640625" y="2389.5" text-anchor="middle" dominant-baseline="central" transform="matrix(1 0 0 1 -462 -1710)">GetEmbeddingResponseDto</text></g></g><g><g><path fill="none" stroke="none"/><text fill="#000000" stroke="none" font-family="Arial" font-size="13px" font-style="normal" font-weight="normal" text-decoration="undefined" x="1021.6181640625" y="2404.5" text-anchor="middle" dominant-baseline="central" transform="matrix(1 0 0 1 -462 -1710)">(from Domain)</text></g></g><g><rect fill="#C0C0C0" stroke="none" x="807" y="2255" width="163.5498046875" height="60" transform="matrix(1 0 0 1 -462 -1710)" fill-opacity="0.2"/></g><g><rect fill="#ffffff" stroke="none" x="800" y="2248" width="163.5498046875" height="60" transform="matrix(1 0 0 1 -462 -1710)"/></g><g><path fill="none" stroke="#000000" paint-order="fill stroke markers" d=" M 338 538 L 501.5498046875 538 L 501.5498046875 598 L 338 598 L 338 538 Z Z" stroke-miterlimit="10" stroke-dasharray=""/></g><g><path fill="none" stroke="#000000" paint-order="fill stroke markers" d=" M 338 578 L 501.5498046875 578" stroke-miterlimit="10" stroke-dasharray=""/></g><g><path fill="none" stroke="#000000" paint-order="fill stroke markers" d=" M 338 588 L 501.5498046875 588" stroke-miterlimit="10" stroke-dasharray=""/></g><g><g><path fill="none" stroke="none"/><text fill="#000000" stroke="none" font-family="Arial" font-size="13px" font-style="normal" font-weight="bold" text-decoration="undefined" x="882.27490234375" y="2261.5" text-anchor="middle" dominant-baseline="central" transform="matrix(1 0 0 1 -462 -1710)">AnalyzeRequirementDto</text></g></g><g><g><path fill="none" stroke="none"/><text fill="#000000" stroke="none" font-family="Arial" font-size="13px" font-style="normal" font-weight="normal" text-decoration="undefined" x="882.27490234375" y="2276.5" text-anchor="middle" dominant-baseline="central" transform="matrix(1 0 0 1 -462 -1710)">(from Domain)</text></g></g><g><path fill="#C0C0C0" stroke="none" paint-order="stroke fill markers" d=" M 1365.59814453125 589 C 1365.59814453125 582.3725823999998 1370.97072693125 577 1377.59814453125 577 C 1384.22556213125 577 1389.59814453125 582.3725823999998 1389.59814453125 589 C 1389.59814453125 595.6274176000002 1384.22556213125 601 1377.59814453125 601 C 1370.97072693125 601 1365.59814453125 595.6274176000002 1365.59814453125 589 Z" fill-opacity="0.2"/></g><g><path fill="#ffffff" stroke="none" paint-order="stroke fill markers" d=" M 1358.59814453125 582 C 1358.59814453125 575.3725823999998 1363.97072693125 570 1370.59814453125 570 C 1377.22556213125 570 1382.59814453125 575.3725823999998 1382.59814453125 582 C 1382.59814453125 588.6274176000002 1377.22556213125 594 1370.59814453125 594 C 1363.97072693125 594 1358.59814453125 588.6274176000002 1358.59814453125 582 Z"/></g><g><path fill="none" stroke="#000000" paint-order="fill stroke markers" d=" M 1358.59814453125 582 C 1358.59814453125 575.3725823999998 1363.97072693125 570 1370.59814453125 570 C 1377.22556213125 570 1382.59814453125 575.3725823999998 1382.59814453125 582 C 1382.59814453125 588.6274176000002 1377.22556213125 594 1370.59814453125 594 C 1363.97072693125 594 1358.59814453125 588.6274176000002 1358.59814453125 582 Z" stroke-miterlimit="10" stroke-dasharray=""/></g><g><g><path fill="none" stroke="none"/><text fill="#000000" stroke="none" font-family="Arial" font-size="13px" font-style="normal" font-weight="bold" text-decoration="undefined" x="1833.09814453125" y="2317.5" text-anchor="middle" dominant-baseline="central" transform="matrix(1 0 0 1 -462 -1710)">OllamaApiPort</text></g></g><g><g><path fill="none" stroke="none"/><text fill="#000000" stroke="none" font-family="Arial" font-size="13px" font-style="normal" font-weight="normal" text-decoration="undefined" x="1833.09814453125" y="2332.5" text-anchor="middle" dominant-baseline="central" transform="matrix(1 0 0 1 -462 -1710)">(from Domain)</text></g></g><g><path fill="#C0C0C0" stroke="none" paint-order="stroke fill markers" d=" M 1016.59814453125 589 C 1016.59814453125 582.3725823999998 1021.97072693125 577 1028.59814453125 577 C 1035.22556213125 577 1040.59814453125 582.3725823999998 1040.59814453125 589 C 1040.59814453125 595.6274176000002 1035.22556213125 601 1028.59814453125 601 C 1021.97072693125 601 1016.59814453125 595.6274176000002 1016.59814453125 589 Z" fill-opacity="0.2"/></g><g><path fill="#ffffff" stroke="none" paint-order="stroke fill markers" d=" M 1009.59814453125 582 C 1009.59814453125 575.3725823999998 1014.97072693125 570 1021.59814453125 570 C 1028.22556213125 570 1033.59814453125 575.3725823999998 1033.59814453125 582 C 1033.59814453125 588.6274176000002 1028.22556213125 594 1021.59814453125 594 C 1014.97072693125 594 1009.59814453125 588.6274176000002 1009.59814453125 582 Z"/></g><g><path fill="none" stroke="#000000" paint-order="fill stroke markers" d=" M 1009.59814453125 582 C 1009.59814453125 575.3725823999998 1014.97072693125 570 1021.59814453125 570 C 1028.22556213125 570 1033.59814453125 575.3725823999998 1033.59814453125 582 C 1033.59814453125 588.6274176000002 1028.22556213125 594 1021.59814453125 594 C 1014.97072693125 594 1009.59814453125 588.6274176000002 1009.59814453125 582 Z" stroke-miterlimit="10" stroke-dasharray=""/></g><g><g><path fill="none" stroke="none"/><text fill="#000000" stroke="none" font-family="Arial" font-size="13px" font-style="normal" font-weight="bold" text-decoration="undefined" x="1484.09814453125" y="2317.5" text-anchor="middle" dominant-baseline="central" transform="matrix(1 0 0 1 -462 -1710)">ConfigPort</text></g></g><g><g><path fill="none" stroke="none"/><text fill="#000000" stroke="none" font-family="Arial" font-size="13px" font-style="normal" font-weight="normal" text-decoration="undefined" x="1484.09814453125" y="2332.5" text-anchor="middle" dominant-baseline="central" transform="matrix(1 0 0 1 -462 -1710)">(from Domain)</text></g></g><g><rect fill="#C0C0C0" stroke="none" x="1367" y="1999" width="248" height="73" transform="matrix(1 0 0 1 -462 -1710)" fill-opacity="0.2"/></g><g><rect fill="#ffffff" stroke="none" x="1360" y="1992" width="248" height="73" transform="matrix(1 0 0 1 -462 -1710)"/></g><g><path fill="none" stroke="#000000" paint-order="fill stroke markers" d=" M 898 282 L 1146 282 L 1146 355 L 898 355 L 898 282 Z Z" stroke-miterlimit="10" stroke-dasharray=""/></g><g><path fill="none" stroke="#000000" paint-order="fill stroke markers" d=" M 898 322 L 1146 322" stroke-miterlimit="10" stroke-dasharray=""/></g><g><path fill="none" stroke="#000000" paint-order="fill stroke markers" d=" M 898 332 L 1146 332" stroke-miterlimit="10" stroke-dasharray=""/></g><g><g><path fill="none" stroke="none"/><text fill="#000000" stroke="none" font-family="Arial" font-size="13px" font-style="normal" font-weight="bold" text-decoration="undefined" x="1484.5" y="2005.5" text-anchor="middle" dominant-baseline="central" transform="matrix(1 0 0 1 -462 -1710)">ConfigAdapter</text></g></g><g><g><path fill="none" stroke="none"/><text fill="#000000" stroke="none" font-family="Arial" font-size="13px" font-style="normal" font-weight="normal" text-decoration="undefined" x="1484.5" y="2020.5" text-anchor="middle" dominant-baseline="central" transform="matrix(1 0 0 1 -462 -1710)">(from Ollama)</text></g></g><g><g><path fill="none" stroke="none"/><text fill="#000000" stroke="none" font-family="Arial" font-size="13px" font-style="normal" font-weight="normal" text-decoration="undefined" x="1365" y="2053.5" text-anchor="start" dominant-baseline="central" transform="matrix(1 0 0 1 -462 -1710)">+getConfig()</text></g></g><g><rect fill="#C0C0C0" stroke="none" x="1631" y="1999" width="417.13232421875" height="131" transform="matrix(1 0 0 1 -462 -1710)" fill-opacity="0.2"/></g><g><rect fill="#ffffff" stroke="none" x="1624" y="1992" width="417.13232421875" height="131" transform="matrix(1 0 0 1 -462 -1710)"/></g><g><path fill="none" stroke="#000000" paint-order="fill stroke markers" d=" M 1162 282 L 1579.13232421875 282 L 1579.13232421875 413 L 1162 413 L 1162 282 Z Z" stroke-miterlimit="10" stroke-dasharray=""/></g><g><path fill="none" stroke="#000000" paint-order="fill stroke markers" d=" M 1162 322 L 1579.13232421875 322" stroke-miterlimit="10" stroke-dasharray=""/></g><g><path fill="none" stroke="#000000" paint-order="fill stroke markers" d=" M 1162 375 L 1579.13232421875 375" stroke-miterlimit="10" stroke-dasharray=""/></g><g><g><path fill="none" stroke="none"/><text fill="#000000" stroke="none" font-family="Arial" font-size="13px" font-style="normal" font-weight="bold" text-decoration="undefined" x="1833.066162109375" y="2005.5" text-anchor="middle" dominant-baseline="central" transform="matrix(1 0 0 1 -462 -1710)">OllamaApiAdapter</text></g></g><g><g><path fill="none" stroke="none"/><text fill="#000000" stroke="none" font-family="Arial" font-size="13px" font-style="normal" font-weight="normal" text-decoration="undefined" x="1833.066162109375" y="2020.5" text-anchor="middle" dominant-baseline="central" transform="matrix(1 0 0 1 -462 -1710)">(from Ollama)</text></g></g><g><g><path fill="none" stroke="none"/><text fill="#000000" stroke="none" font-family="Arial" font-size="13px" font-style="normal" font-weight="normal" text-decoration="undefined" x="1629" y="2043.5" text-anchor="start" dominant-baseline="central" transform="matrix(1 0 0 1 -462 -1710)">+client: AxiosInstance</text></g></g><g><g><path fill="none" stroke="none"/><text fill="#000000" stroke="none" font-family="Arial" font-size="13px" font-style="normal" font-weight="normal" text-decoration="undefined" x="1629" y="2058.5" text-anchor="start" dominant-baseline="central" transform="matrix(1 0 0 1 -462 -1710)">+embeddingsClient: AxiosInstance</text></g></g><g><g><path fill="none" stroke="none"/><text fill="#000000" stroke="none" font-family="Arial" font-size="13px" font-style="normal" font-weight="normal" text-decoration="undefined" x="1629" y="2073.5" text-anchor="start" dominant-baseline="central" transform="matrix(1 0 0 1 -462 -1710)">+configPort: ConfigPort</text></g></g><g><g><path fill="none" stroke="none"/><text fill="#000000" stroke="none" font-family="Arial" font-size="13px" font-style="normal" font-weight="normal" text-decoration="undefined" x="1629" y="2096.5" text-anchor="start" dominant-baseline="central" transform="matrix(1 0 0 1 -462 -1710)">+sendMessageToOllama(model: String, prompt: String, system: String)</text></g></g><g><g><path fill="none" stroke="none"/><text fill="#000000" stroke="none" font-family="Arial" font-size="13px" font-style="normal" font-weight="normal" text-decoration="undefined" x="1629" y="2111.5" text-anchor="start" dominant-baseline="central" transform="matrix(1 0 0 1 -462 -1710)">+getEmbedding(model: String, text: String)</text></g></g><g><rect fill="#C0C0C0" stroke="none" x="1159" y="1999" width="185.220703125" height="73" transform="matrix(1 0 0 1 -462 -1710)" fill-opacity="0.2"/></g><g><rect fill="#ffffff" stroke="none" x="1152" y="1992" width="185.220703125" height="73" transform="matrix(1 0 0 1 -462 -1710)"/></g><g><path fill="none" stroke="#000000" paint-order="fill stroke markers" d=" M 690 282 L 875.220703125 282 L 875.220703125 355 L 690 355 L 690 282 Z Z" stroke-miterlimit="10" stroke-dasharray=""/></g><g><path fill="none" stroke="#000000" paint-order="fill stroke markers" d=" M 690 322 L 875.220703125 322" stroke-miterlimit="10" stroke-dasharray=""/></g><g><path fill="none" stroke="#000000" paint-order="fill stroke markers" d=" M 690 332 L 875.220703125 332" stroke-miterlimit="10" stroke-dasharray=""/></g><g><g><path fill="none" stroke="none"/><text fill="#000000" stroke="none" font-family="Arial" font-size="13px" font-style="normal" font-weight="bold" text-decoration="undefined" x="1245.1103515625" y="2005.5" text-anchor="middle" dominant-baseline="central" transform="matrix(1 0 0 1 -462 -1710)">JsonParserAdapter</text></g></g><g><g><path fill="none" stroke="none"/><text fill="#000000" stroke="none" font-family="Arial" font-size="13px" font-style="normal" font-weight="normal" text-decoration="undefined" x="1245.1103515625" y="2020.5" text-anchor="middle" dominant-baseline="central" transform="matrix(1 0 0 1 -462 -1710)">(from Adapters)</text></g></g><g><g><path fill="none" stroke="none"/><text fill="#000000" stroke="none" font-family="Arial" font-size="13px" font-style="normal" font-weight="normal" text-decoration="undefined" x="1157" y="2053.5" text-anchor="start" dominant-baseline="central" transform="matrix(1 0 0 1 -462 -1710)">+parseJson(jsonString: String)</text></g></g><g><path fill="none" stroke="#000000" paint-order="fill stroke markers" d=" M 1026 282 L 1026 114 L 326 114" stroke-miterlimit="10" stroke-dasharray=""/></g><g><path fill="#000000" stroke="none" paint-order="stroke fill markers" d=" M 336.1626748576241 109.79048224398412 L 326 114 L 336.1626748576241 118.20951775601588 L 348 114"/></g><g><path fill="none" stroke="#000000" paint-order="fill stroke markers" d=" M 336.1626748576241 109.79048224398412 L 326 114 L 336.1626748576241 118.20951775601588 L 348 114 L 336.1626748576241 109.79048224398412" stroke-miterlimit="10" stroke-dasharray=""/></g><g><path fill="none" stroke="#000000" paint-order="fill stroke markers" d=" M 1370 282 L 1370 114 L 326 114" stroke-miterlimit="10" stroke-dasharray=""/></g><g><path fill="#000000" stroke="none" paint-order="stroke fill markers" d=" M 336.1626748576241 109.79048224398412 L 326 114 L 336.1626748576241 118.20951775601588 L 348 114"/></g><g><path fill="none" stroke="#000000" paint-order="fill stroke markers" d=" M 336.1626748576241 109.79048224398412 L 326 114 L 336.1626748576241 118.20951775601588 L 348 114 L 336.1626748576241 109.79048224398412" stroke-miterlimit="10" stroke-dasharray=""/></g></g></svg>