<svg version="1.1" xmlns="http://www.w3.org/2000/svg" xmlns:xlink="http://www.w3.org/1999/xlink" width="2525" height="580"><defs/><g><g><rect fill="#C0C0C0" stroke="none" x="2263" y="2919" width="96" height="15" transform="matrix(1 0 0 1 -1166 -2478)" fill-opacity="0.2"/></g><g><rect fill="#C0C0C0" stroke="none" x="2263" y="2933" width="240" height="122" transform="matrix(1 0 0 1 -1166 -2478)" fill-opacity="0.2"/></g><g><rect fill="#ffffff" stroke="none" x="2256" y="2927" width="240" height="121" transform="matrix(1 0 0 1 -1166 -2478)"/></g><g><path fill="none" stroke="#000000" paint-order="fill stroke markers" d=" M 1090 449 L 1330 449 L 1330 570 L 1090 570 L 1090 449 Z Z" stroke-miterlimit="10" stroke-dasharray=""/></g><g><rect fill="#ffffff" stroke="none" x="2256" y="2912" width="96" height="15" transform="matrix(1 0 0 1 -1166 -2478)"/></g><g><path fill="none" stroke="#000000" paint-order="fill stroke markers" d=" M 1090 434 L 1186 434 L 1186 449 L 1090 449 L 1090 434 Z Z" stroke-miterlimit="10" stroke-dasharray=""/></g><g><rect fill="#ffffff" stroke="none" x="2256" y="2926" width="240" height="122" transform="matrix(1 0 0 1 -1166 -2478)"/></g><g><path fill="none" stroke="#000000" paint-order="fill stroke markers" d=" M 1090 448 L 1330 448 L 1330 570 L 1090 570 L 1090 448 Z Z" stroke-miterlimit="10" stroke-dasharray=""/></g><g><g><path fill="none" stroke="none"/><text fill="#000000" stroke="none" font-family="Arial" font-size="13px" font-style="normal" font-weight="bold" text-decoration="undefined" x="2376.5" y="2940.5" text-anchor="middle" dominant-baseline="central" transform="matrix(1 0 0 1 -1166 -2478)">Composition Root</text></g></g><g><rect fill="#C0C0C0" stroke="none" x="2307" y="2967" width="151.59716796875" height="60" transform="matrix(1 0 0 1 -1166 -2478)" fill-opacity="0.2"/></g><g><rect fill="#ffffff" stroke="none" x="2300" y="2960" width="151.59716796875" height="60" transform="matrix(1 0 0 1 -1166 -2478)"/></g><g><path fill="none" stroke="#000000" paint-order="fill stroke markers" d=" M 1134 482 L 1285.59716796875 482 L 1285.59716796875 542 L 1134 542 L 1134 482 Z Z" stroke-miterlimit="10" stroke-dasharray=""/></g><g><path fill="none" stroke="#000000" paint-order="fill stroke markers" d=" M 1134 522 L 1285.59716796875 522" stroke-miterlimit="10" stroke-dasharray=""/></g><g><path fill="none" stroke="#000000" paint-order="fill stroke markers" d=" M 1134 532 L 1285.59716796875 532" stroke-miterlimit="10" stroke-dasharray=""/></g><g><g><path fill="none" stroke="none"/><text fill="#000000" stroke="none" font-family="Arial" font-size="13px" font-style="normal" font-weight="bold" text-decoration="undefined" x="2376.298583984375" y="2973.5" text-anchor="middle" dominant-baseline="central" transform="matrix(1 0 0 1 -1166 -2478)">Extension</text></g></g><g><g><path fill="none" stroke="none"/><text fill="#000000" stroke="none" font-family="Arial" font-size="13px" font-style="normal" font-weight="normal" text-decoration="undefined" x="2376.298583984375" y="2988.5" text-anchor="middle" dominant-baseline="central" transform="matrix(1 0 0 1 -1166 -2478)">(from Composition Root)</text></g></g><g><rect fill="#C0C0C0" stroke="none" x="1383" y="2495" width="819.1999999999998" height="15" transform="matrix(1 0 0 1 -1166 -2478)" fill-opacity="0.2"/></g><g><rect fill="#C0C0C0" stroke="none" x="1383" y="2509" width="2048" height="90" transform="matrix(1 0 0 1 -1166 -2478)" fill-opacity="0.2"/></g><g><rect fill="#ffffff" stroke="none" x="1376" y="2503" width="2048" height="89" transform="matrix(1 0 0 1 -1166 -2478)"/></g><g><path fill="none" stroke="#000000" paint-order="fill stroke markers" d=" M 210 25 L 2258 25 L 2258 114 L 210 114 L 210 25 Z Z" stroke-miterlimit="10" stroke-dasharray=""/></g><g><rect fill="#ffffff" stroke="none" x="1376" y="2488" width="819.1999999999998" height="15" transform="matrix(1 0 0 1 -1166 -2478)"/></g><g><path fill="none" stroke="#000000" paint-order="fill stroke markers" d=" M 210 10 L 1029.1999999999998 10 L 1029.1999999999998 25 L 210 25 L 210 10 Z Z" stroke-miterlimit="10" stroke-dasharray=""/></g><g><rect fill="#ffffff" stroke="none" x="1376" y="2502" width="2048" height="90" transform="matrix(1 0 0 1 -1166 -2478)"/></g><g><path fill="none" stroke="#000000" paint-order="fill stroke markers" d=" M 210 24 L 2258 24 L 2258 114 L 210 114 L 210 24 Z Z" stroke-miterlimit="10" stroke-dasharray=""/></g><g><g><path fill="none" stroke="none"/><text fill="#000000" stroke="none" font-family="Arial" font-size="13px" font-style="normal" font-weight="bold" text-decoration="undefined" x="2400.5" y="2516.5" text-anchor="middle" dominant-baseline="central" transform="matrix(1 0 0 1 -1166 -2478)">Core</text></g></g><g><path fill="#C0C0C0" stroke="none" paint-order="stroke fill markers" d=" M 764.408203125 65 C 764.408203125 58.37258239999983 769.780785525 53 776.408203125 53 C 783.035620725 53 788.408203125 58.37258239999983 788.408203125 65 C 788.408203125 71.62741760000017 783.035620725 77 776.408203125 77 C 769.780785525 77 764.408203125 71.62741760000017 764.408203125 65 Z" fill-opacity="0.2"/></g><g><path fill="#ffffff" stroke="none" paint-order="stroke fill markers" d=" M 757.408203125 58 C 757.408203125 51.37258239999983 762.780785525 46 769.408203125 46 C 776.035620725 46 781.408203125 51.37258239999983 781.408203125 58 C 781.408203125 64.62741760000017 776.035620725 70 769.408203125 70 C 762.780785525 70 757.408203125 64.62741760000017 757.408203125 58 Z"/></g><g><path fill="none" stroke="#000000" paint-order="fill stroke markers" d=" M 757.408203125 58 C 757.408203125 51.37258239999983 762.780785525 46 769.408203125 46 C 776.035620725 46 781.408203125 51.37258239999983 781.408203125 58 C 781.408203125 64.62741760000017 776.035620725 70 769.408203125 70 C 762.780785525 70 757.408203125 64.62741760000017 757.408203125 58 Z" stroke-miterlimit="10" stroke-dasharray=""/></g><g><g><path fill="none" stroke="none"/><text fill="#000000" stroke="none" font-family="Arial" font-size="13px" font-style="normal" font-weight="bold" text-decoration="undefined" x="1935.908203125" y="2561.5" text-anchor="middle" dominant-baseline="central" transform="matrix(1 0 0 1 -1166 -2478)">IConfiguration</text></g></g><g><g><path fill="none" stroke="none"/><text fill="#000000" stroke="none" font-family="Arial" font-size="13px" font-style="normal" font-weight="normal" text-decoration="undefined" x="1935.908203125" y="2576.5" text-anchor="middle" dominant-baseline="central" transform="matrix(1 0 0 1 -1166 -2478)">(from Core)</text></g></g><g><path fill="#C0C0C0" stroke="none" paint-order="stroke fill markers" d=" M 1549.4072265625 65 C 1549.4072265625 58.37258239999983 1554.7798089624998 53 1561.4072265625 53 C 1568.0346441625002 53 1573.4072265625 58.37258239999983 1573.4072265625 65 C 1573.4072265625 71.62741760000017 1568.0346441625002 77 1561.4072265625 77 C 1554.7798089624998 77 1549.4072265625 71.62741760000017 1549.4072265625 65 Z" fill-opacity="0.2"/></g><g><path fill="#ffffff" stroke="none" paint-order="stroke fill markers" d=" M 1542.4072265625 58 C 1542.4072265625 51.37258239999983 1547.7798089624998 46 1554.4072265625 46 C 1561.0346441625002 46 1566.4072265625 51.37258239999983 1566.4072265625 58 C 1566.4072265625 64.62741760000017 1561.0346441625002 70 1554.4072265625 70 C 1547.7798089624998 70 1542.4072265625 64.62741760000017 1542.4072265625 58 Z"/></g><g><path fill="none" stroke="#000000" paint-order="fill stroke markers" d=" M 1542.4072265625 58 C 1542.4072265625 51.37258239999983 1547.7798089624998 46 1554.4072265625 46 C 1561.0346441625002 46 1566.4072265625 51.37258239999983 1566.4072265625 58 C 1566.4072265625 64.62741760000017 1561.0346441625002 70 1554.4072265625 70 C 1547.7798089624998 70 1542.4072265625 64.62741760000017 1542.4072265625 58 Z" stroke-miterlimit="10" stroke-dasharray=""/></g><g><g><path fill="none" stroke="none"/><text fill="#000000" stroke="none" font-family="Arial" font-size="13px" font-style="normal" font-weight="bold" text-decoration="undefined" x="2720.9072265625" y="2561.5" text-anchor="middle" dominant-baseline="central" transform="matrix(1 0 0 1 -1166 -2478)">IFileReaderService</text></g></g><g><g><path fill="none" stroke="none"/><text fill="#000000" stroke="none" font-family="Arial" font-size="13px" font-style="normal" font-weight="normal" text-decoration="undefined" x="2720.9072265625" y="2576.5" text-anchor="middle" dominant-baseline="central" transform="matrix(1 0 0 1 -1166 -2478)">(from Core)</text></g></g><g><path fill="#C0C0C0" stroke="none" paint-order="stroke fill markers" d=" M 1112.134033203125 65 C 1112.134033203125 58.37258239999983 1117.5066156031248 53 1124.134033203125 53 C 1130.7614508031252 53 1136.134033203125 58.37258239999983 1136.134033203125 65 C 1136.134033203125 71.62741760000017 1130.7614508031252 77 1124.134033203125 77 C 1117.5066156031248 77 1112.134033203125 71.62741760000017 1112.134033203125 65 Z" fill-opacity="0.2"/></g><g><path fill="#ffffff" stroke="none" paint-order="stroke fill markers" d=" M 1105.134033203125 58 C 1105.134033203125 51.37258239999983 1110.5066156031248 46 1117.134033203125 46 C 1123.7614508031252 46 1129.134033203125 51.37258239999983 1129.134033203125 58 C 1129.134033203125 64.62741760000017 1123.7614508031252 70 1117.134033203125 70 C 1110.5066156031248 70 1105.134033203125 64.62741760000017 1105.134033203125 58 Z"/></g><g><path fill="none" stroke="#000000" paint-order="fill stroke markers" d=" M 1105.134033203125 58 C 1105.134033203125 51.37258239999983 1110.5066156031248 46 1117.134033203125 46 C 1123.7614508031252 46 1129.134033203125 51.37258239999983 1129.134033203125 58 C 1129.134033203125 64.62741760000017 1123.7614508031252 70 1117.134033203125 70 C 1110.5066156031248 70 1105.134033203125 64.62741760000017 1105.134033203125 58 Z" stroke-miterlimit="10" stroke-dasharray=""/></g><g><g><path fill="none" stroke="none"/><text fill="#000000" stroke="none" font-family="Arial" font-size="13px" font-style="normal" font-weight="bold" text-decoration="undefined" x="2283.634033203125" y="2561.5" text-anchor="middle" dominant-baseline="central" transform="matrix(1 0 0 1 -1166 -2478)">IParseCodeService</text></g></g><g><g><path fill="none" stroke="none"/><text fill="#000000" stroke="none" font-family="Arial" font-size="13px" font-style="normal" font-weight="normal" text-decoration="undefined" x="2283.634033203125" y="2576.5" text-anchor="middle" dominant-baseline="central" transform="matrix(1 0 0 1 -1166 -2478)">(from Core)</text></g></g><g><path fill="#C0C0C0" stroke="none" paint-order="stroke fill markers" d=" M 304.80908203125 65 C 304.80908203125 58.37258239999983 310.18166443125006 53 316.80908203125 53 C 323.43649963124994 53 328.80908203125 58.37258239999983 328.80908203125 65 C 328.80908203125 71.62741760000017 323.43649963124994 77 316.80908203125 77 C 310.18166443125006 77 304.80908203125 71.62741760000017 304.80908203125 65 Z" fill-opacity="0.2"/></g><g><path fill="#ffffff" stroke="none" paint-order="stroke fill markers" d=" M 297.80908203125 58 C 297.80908203125 51.37258239999983 303.18166443125006 46 309.80908203125 46 C 316.43649963124994 46 321.80908203125 51.37258239999983 321.80908203125 58 C 321.80908203125 64.62741760000017 316.43649963124994 70 309.80908203125 70 C 303.18166443125006 70 297.80908203125 64.62741760000017 297.80908203125 58 Z"/></g><g><path fill="none" stroke="#000000" paint-order="fill stroke markers" d=" M 297.80908203125 58 C 297.80908203125 51.37258239999983 303.18166443125006 46 309.80908203125 46 C 316.43649963124994 46 321.80908203125 51.37258239999983 321.80908203125 58 C 321.80908203125 64.62741760000017 316.43649963124994 70 309.80908203125 70 C 303.18166443125006 70 297.80908203125 64.62741760000017 297.80908203125 58 Z" stroke-miterlimit="10" stroke-dasharray=""/></g><g><g><path fill="none" stroke="none"/><text fill="#000000" stroke="none" font-family="Arial" font-size="13px" font-style="normal" font-weight="bold" text-decoration="undefined" x="1476.30908203125" y="2561.5" text-anchor="middle" dominant-baseline="central" transform="matrix(1 0 0 1 -1166 -2478)">ICsvService</text></g></g><g><g><path fill="none" stroke="none"/><text fill="#000000" stroke="none" font-family="Arial" font-size="13px" font-style="normal" font-weight="normal" text-decoration="undefined" x="1476.30908203125" y="2576.5" text-anchor="middle" dominant-baseline="central" transform="matrix(1 0 0 1 -1166 -2478)">(from Core)</text></g></g><g><path fill="#C0C0C0" stroke="none" paint-order="stroke fill markers" d=" M 2145.47265625 65 C 2145.47265625 58.37258239999983 2150.84523865 53 2157.47265625 53 C 2164.10007385 53 2169.47265625 58.37258239999983 2169.47265625 65 C 2169.47265625 71.62741760000017 2164.10007385 77 2157.47265625 77 C 2150.84523865 77 2145.47265625 71.62741760000017 2145.47265625 65 Z" fill-opacity="0.2"/></g><g><path fill="#ffffff" stroke="none" paint-order="stroke fill markers" d=" M 2138.47265625 58 C 2138.47265625 51.37258239999983 2143.84523865 46 2150.47265625 46 C 2157.10007385 46 2162.47265625 51.37258239999983 2162.47265625 58 C 2162.47265625 64.62741760000017 2157.10007385 70 2150.47265625 70 C 2143.84523865 70 2138.47265625 64.62741760000017 2138.47265625 58 Z"/></g><g><path fill="none" stroke="#000000" paint-order="fill stroke markers" d=" M 2138.47265625 58 C 2138.47265625 51.37258239999983 2143.84523865 46 2150.47265625 46 C 2157.10007385 46 2162.47265625 51.37258239999983 2162.47265625 58 C 2162.47265625 64.62741760000017 2157.10007385 70 2150.47265625 70 C 2143.84523865 70 2138.47265625 64.62741760000017 2138.47265625 58 Z" stroke-miterlimit="10" stroke-dasharray=""/></g><g><g><path fill="none" stroke="none"/><text fill="#000000" stroke="none" font-family="Arial" font-size="13px" font-style="normal" font-weight="bold" text-decoration="undefined" x="3316.97265625" y="2561.5" text-anchor="middle" dominant-baseline="central" transform="matrix(1 0 0 1 -1166 -2478)">IRequirementsApiService</text></g></g><g><g><path fill="none" stroke="none"/><text fill="#000000" stroke="none" font-family="Arial" font-size="13px" font-style="normal" font-weight="normal" text-decoration="undefined" x="3316.97265625" y="2576.5" text-anchor="middle" dominant-baseline="central" transform="matrix(1 0 0 1 -1166 -2478)">(from Core)</text></g></g><g><rect fill="#C0C0C0" stroke="none" x="1183" y="2623" width="1001.5999999999999" height="15" transform="matrix(1 0 0 1 -1166 -2478)" fill-opacity="0.2"/></g><g><rect fill="#C0C0C0" stroke="none" x="1183" y="2637" width="2504" height="202" transform="matrix(1 0 0 1 -1166 -2478)" fill-opacity="0.2"/></g><g><rect fill="#ffffff" stroke="none" x="1176" y="2631" width="2504" height="201" transform="matrix(1 0 0 1 -1166 -2478)"/></g><g><path fill="none" stroke="#000000" paint-order="fill stroke markers" d=" M 10 153 L 2514 153 L 2514 354 L 10 354 L 10 153 Z Z" stroke-miterlimit="10" stroke-dasharray=""/></g><g><rect fill="#ffffff" stroke="none" x="1176" y="2616" width="1001.5999999999999" height="15" transform="matrix(1 0 0 1 -1166 -2478)"/></g><g><path fill="none" stroke="#000000" paint-order="fill stroke markers" d=" M 10 138 L 1011.5999999999999 138 L 1011.5999999999999 153 L 10 153 L 10 138 Z Z" stroke-miterlimit="10" stroke-dasharray=""/></g><g><rect fill="#ffffff" stroke="none" x="1176" y="2630" width="2504" height="202" transform="matrix(1 0 0 1 -1166 -2478)"/></g><g><path fill="none" stroke="#000000" paint-order="fill stroke markers" d=" M 10 152 L 2514 152 L 2514 354 L 10 354 L 10 152 Z Z" stroke-miterlimit="10" stroke-dasharray=""/></g><g><g><path fill="none" stroke="none"/><text fill="#000000" stroke="none" font-family="Arial" font-size="13px" font-style="normal" font-weight="bold" text-decoration="undefined" x="2428.5" y="2644.5" text-anchor="middle" dominant-baseline="central" transform="matrix(1 0 0 1 -1166 -2478)">Infrastructure</text></g></g><g><path fill="none" stroke="#000000" paint-order="fill stroke markers" d=" M 1178 482 L 1178 402 L 762 402 L 762 325" stroke-miterlimit="10" stroke-dasharray="3"/></g><g><path fill="none" stroke="#000000" paint-order="fill stroke markers" d=" M 766.2095177560159 335.1626748576241 L 762 325 L 757.7904822439841 335.1626748576241" stroke-miterlimit="10" stroke-dasharray=""/></g><g><path fill="none" stroke="#000000" paint-order="fill stroke markers" d=" M 1146 482 L 1146 418 L 306 418 L 306 303" stroke-miterlimit="10" stroke-dasharray="3"/></g><g><path fill="none" stroke="#000000" paint-order="fill stroke markers" d=" M 310.2095177560159 313.1626748576241 L 306 303 L 301.7904822439841 313.1626748576241" stroke-miterlimit="10" stroke-dasharray=""/></g><g><path fill="none" stroke="#000000" paint-order="fill stroke markers" d=" M 1210 482 L 1210 386 L 1114 386 L 1114 302" stroke-miterlimit="10" stroke-dasharray="3"/></g><g><path fill="none" stroke="#000000" paint-order="fill stroke markers" d=" M 1118.2095177560159 312.1626748576241 L 1114 302 L 1109.7904822439841 312.1626748576241" stroke-miterlimit="10" stroke-dasharray=""/></g><g><path fill="none" stroke="#000000" paint-order="fill stroke markers" d=" M 1242 482 L 1242 386 L 1546 386 L 1546 309" stroke-miterlimit="10" stroke-dasharray="3"/></g><g><path fill="none" stroke="#000000" paint-order="fill stroke markers" d=" M 1550.2095177560159 319.1626748576241 L 1546 309 L 1541.7904822439841 319.1626748576241" stroke-miterlimit="10" stroke-dasharray=""/></g><g><path fill="none" stroke="#000000" paint-order="fill stroke markers" d=" M 1274 482 L 1274 402 L 2154 402 L 2154 302" stroke-miterlimit="10" stroke-dasharray="3"/></g><g><path fill="none" stroke="#000000" paint-order="fill stroke markers" d=" M 2158.209517756016 312.1626748576241 L 2154 302 L 2149.790482243984 312.1626748576241" stroke-miterlimit="10" stroke-dasharray=""/></g><g><path fill="none" stroke="#000000" paint-order="fill stroke markers" d=" M 769 161 L 769 70" stroke-miterlimit="10" stroke-dasharray=""/></g><g><path fill="none" stroke="#000000" paint-order="fill stroke markers" d=" M 309 184 L 309 70" stroke-miterlimit="10" stroke-dasharray=""/></g><g><path fill="none" stroke="#000000" paint-order="fill stroke markers" d=" M 1116 185 L 1117 70" stroke-miterlimit="10" stroke-dasharray=""/></g><g><path fill="none" stroke="#000000" paint-order="fill stroke markers" d=" M 1553 177 L 1554 70" stroke-miterlimit="10" stroke-dasharray=""/></g><g><path fill="none" stroke="#000000" paint-order="fill stroke markers" d=" M 2150 185 L 2150 70" stroke-miterlimit="10" stroke-dasharray=""/></g><g><rect fill="#C0C0C0" stroke="none" x="3000" y="2671" width="646.23828125" height="116" transform="matrix(1 0 0 1 -1166 -2478)" fill-opacity="0.2"/></g><g><rect fill="#ffffff" stroke="none" x="2993" y="2664" width="646.23828125" height="116" transform="matrix(1 0 0 1 -1166 -2478)"/></g><g><path fill="none" stroke="#000000" paint-order="fill stroke markers" d=" M 1827 186 L 2473.23828125 186 L 2473.23828125 302 L 1827 302 L 1827 186 Z Z" stroke-miterlimit="10" stroke-dasharray=""/></g><g><path fill="none" stroke="#000000" paint-order="fill stroke markers" d=" M 1827 226 L 2473.23828125 226" stroke-miterlimit="10" stroke-dasharray=""/></g><g><path fill="none" stroke="#000000" paint-order="fill stroke markers" d=" M 1827 249 L 2473.23828125 249" stroke-miterlimit="10" stroke-dasharray=""/></g><g><g><path fill="none" stroke="none"/><text fill="#000000" stroke="none" font-family="Arial" font-size="13px" font-style="normal" font-weight="bold" text-decoration="undefined" x="3316.619140625" y="2677.5" text-anchor="middle" dominant-baseline="central" transform="matrix(1 0 0 1 -1166 -2478)">RequirementsApiService</text></g></g><g><g><path fill="none" stroke="none"/><text fill="#000000" stroke="none" font-family="Arial" font-size="13px" font-style="normal" font-weight="normal" text-decoration="undefined" x="3316.619140625" y="2692.5" text-anchor="middle" dominant-baseline="central" transform="matrix(1 0 0 1 -1166 -2478)">(from Infrastructure)</text></g></g><g><g><path fill="none" stroke="none"/><text fill="#000000" stroke="none" font-family="Arial" font-size="13px" font-style="normal" font-weight="normal" text-decoration="undefined" x="2998" y="2715.5" text-anchor="start" dominant-baseline="central" transform="matrix(1 0 0 1 -1166 -2478)">-baseUrl: string</text></g></g><g><g><path fill="none" stroke="none"/><text fill="#000000" stroke="none" font-family="Arial" font-size="13px" font-style="normal" font-weight="normal" text-decoration="undefined" x="2998" y="2738.5" text-anchor="start" dominant-baseline="central" transform="matrix(1 0 0 1 -1166 -2478)">+getEmbedding(model: string, text: string): Promise&lt;number[]&gt;</text></g></g><g><g><path fill="none" stroke="none"/><text fill="#000000" stroke="none" font-family="Arial" font-size="13px" font-style="normal" font-weight="normal" text-decoration="undefined" x="2998" y="2753.5" text-anchor="start" dominant-baseline="central" transform="matrix(1 0 0 1 -1166 -2478)">+analyzeRequirement(requestData: RequirementAnalysisRequest): Promise&lt;RequirementAnalysisResponse&gt;</text></g></g><g><g><path fill="none" stroke="none"/><text fill="#000000" stroke="none" font-family="Arial" font-size="13px" font-style="normal" font-weight="normal" text-decoration="undefined" x="2998" y="2768.5" text-anchor="start" dominant-baseline="central" transform="matrix(1 0 0 1 -1166 -2478)">-handleApiError(error: any, message: string): never</text></g></g><g><rect fill="#C0C0C0" stroke="none" x="1785" y="2647" width="314.30029296875" height="163" transform="matrix(1 0 0 1 -1166 -2478)" fill-opacity="0.2"/></g><g><rect fill="#ffffff" stroke="none" x="1778" y="2640" width="314.30029296875" height="163" transform="matrix(1 0 0 1 -1166 -2478)"/></g><g><path fill="none" stroke="#000000" paint-order="fill stroke markers" d=" M 612 162 L 926.30029296875 162 L 926.30029296875 325 L 612 325 L 612 162 Z Z" stroke-miterlimit="10" stroke-dasharray=""/></g><g><path fill="none" stroke="#000000" paint-order="fill stroke markers" d=" M 612 202 L 926.30029296875 202" stroke-miterlimit="10" stroke-dasharray=""/></g><g><path fill="none" stroke="#000000" paint-order="fill stroke markers" d=" M 612 212 L 926.30029296875 212" stroke-miterlimit="10" stroke-dasharray=""/></g><g><g><path fill="none" stroke="none"/><text fill="#000000" stroke="none" font-family="Arial" font-size="13px" font-style="normal" font-weight="bold" text-decoration="undefined" x="1935.650146484375" y="2653.5" text-anchor="middle" dominant-baseline="central" transform="matrix(1 0 0 1 -1166 -2478)">VSCodeConfiguration</text></g></g><g><g><path fill="none" stroke="none"/><text fill="#000000" stroke="none" font-family="Arial" font-size="13px" font-style="normal" font-weight="normal" text-decoration="undefined" x="1935.650146484375" y="2668.5" text-anchor="middle" dominant-baseline="central" transform="matrix(1 0 0 1 -1166 -2478)">(from Infrastructure)</text></g></g><g><g><path fill="none" stroke="none"/><text fill="#000000" stroke="none" font-family="Arial" font-size="13px" font-style="normal" font-weight="normal" text-decoration="undefined" x="1783" y="2701.5" text-anchor="start" dominant-baseline="central" transform="matrix(1 0 0 1 -1166 -2478)">+getRequirementModel(): string</text></g></g><g><g><path fill="none" stroke="none"/><text fill="#000000" stroke="none" font-family="Arial" font-size="13px" font-style="normal" font-weight="normal" text-decoration="undefined" x="1783" y="2716.5" text-anchor="start" dominant-baseline="central" transform="matrix(1 0 0 1 -1166 -2478)">+getCodeModel(): string</text></g></g><g><g><path fill="none" stroke="none"/><text fill="#000000" stroke="none" font-family="Arial" font-size="13px" font-style="normal" font-weight="normal" text-decoration="undefined" x="1783" y="2731.5" text-anchor="start" dominant-baseline="central" transform="matrix(1 0 0 1 -1166 -2478)">+getImplementationModel(): string</text></g></g><g><g><path fill="none" stroke="none"/><text fill="#000000" stroke="none" font-family="Arial" font-size="13px" font-style="normal" font-weight="normal" text-decoration="undefined" x="1783" y="2746.5" text-anchor="start" dominant-baseline="central" transform="matrix(1 0 0 1 -1166 -2478)">+getQualityScoreThreshold(): number</text></g></g><g><g><path fill="none" stroke="none"/><text fill="#000000" stroke="none" font-family="Arial" font-size="13px" font-style="normal" font-weight="normal" text-decoration="undefined" x="1783" y="2761.5" text-anchor="start" dominant-baseline="central" transform="matrix(1 0 0 1 -1166 -2478)">+getComplianceScoreThreshold(): number</text></g></g><g><g><path fill="none" stroke="none"/><text fill="#000000" stroke="none" font-family="Arial" font-size="13px" font-style="normal" font-weight="normal" text-decoration="undefined" x="1783" y="2776.5" text-anchor="start" dominant-baseline="central" transform="matrix(1 0 0 1 -1166 -2478)">-getValue&lt;T&gt;(key: string, defaultValue: T): T()</text></g></g><g><g><path fill="none" stroke="none"/><text fill="#000000" stroke="none" font-family="Arial" font-size="13px" font-style="normal" font-weight="normal" text-decoration="undefined" x="1783" y="2791.5" text-anchor="start" dominant-baseline="central" transform="matrix(1 0 0 1 -1166 -2478)">-setValue&lt;T&gt;(key: string, value: T): Promise&lt;void&gt;()</text></g></g><g><rect fill="#C0C0C0" stroke="none" x="2126" y="2671" width="327.0654296875" height="116" transform="matrix(1 0 0 1 -1166 -2478)" fill-opacity="0.2"/></g><g><rect fill="#ffffff" stroke="none" x="2119" y="2664" width="327.0654296875" height="116" transform="matrix(1 0 0 1 -1166 -2478)"/></g><g><path fill="none" stroke="#000000" paint-order="fill stroke markers" d=" M 953 186 L 1280.0654296875 186 L 1280.0654296875 302 L 953 302 L 953 186 Z Z" stroke-miterlimit="10" stroke-dasharray=""/></g><g><path fill="none" stroke="#000000" paint-order="fill stroke markers" d=" M 953 226 L 1280.0654296875 226" stroke-miterlimit="10" stroke-dasharray=""/></g><g><path fill="none" stroke="#000000" paint-order="fill stroke markers" d=" M 953 249 L 1280.0654296875 249" stroke-miterlimit="10" stroke-dasharray=""/></g><g><g><path fill="none" stroke="none"/><text fill="#000000" stroke="none" font-family="Arial" font-size="13px" font-style="normal" font-weight="bold" text-decoration="undefined" x="2283.03271484375" y="2677.5" text-anchor="middle" dominant-baseline="central" transform="matrix(1 0 0 1 -1166 -2478)">ParseCodeService</text></g></g><g><g><path fill="none" stroke="none"/><text fill="#000000" stroke="none" font-family="Arial" font-size="13px" font-style="normal" font-weight="normal" text-decoration="undefined" x="2283.03271484375" y="2692.5" text-anchor="middle" dominant-baseline="central" transform="matrix(1 0 0 1 -1166 -2478)">(from Infrastructure)</text></g></g><g><g><path fill="none" stroke="none"/><text fill="#000000" stroke="none" font-family="Arial" font-size="13px" font-style="normal" font-weight="normal" text-decoration="undefined" x="2124" y="2715.5" text-anchor="start" dominant-baseline="central" transform="matrix(1 0 0 1 -1166 -2478)">-ignoredPaths: string[]</text></g></g><g><g><path fill="none" stroke="none"/><text fill="#000000" stroke="none" font-family="Arial" font-size="13px" font-style="normal" font-weight="normal" text-decoration="undefined" x="2124" y="2738.5" text-anchor="start" dominant-baseline="central" transform="matrix(1 0 0 1 -1166 -2478)">+setIgnoredPaths(paths: string[]): void</text></g></g><g><g><path fill="none" stroke="none"/><text fill="#000000" stroke="none" font-family="Arial" font-size="13px" font-style="normal" font-weight="normal" text-decoration="undefined" x="2124" y="2753.5" text-anchor="start" dominant-baseline="central" transform="matrix(1 0 0 1 -1166 -2478)">+getIgnoredPaths(): string[]</text></g></g><g><g><path fill="none" stroke="none"/><text fill="#000000" stroke="none" font-family="Arial" font-size="13px" font-style="normal" font-weight="normal" text-decoration="undefined" x="2124" y="2768.5" text-anchor="start" dominant-baseline="central" transform="matrix(1 0 0 1 -1166 -2478)">+parseCode(traceability: Traceability): Promise&lt;string&gt;</text></g></g><g><rect fill="#C0C0C0" stroke="none" x="2480" y="2663" width="493.03759765625" height="131" transform="matrix(1 0 0 1 -1166 -2478)" fill-opacity="0.2"/></g><g><rect fill="#ffffff" stroke="none" x="2473" y="2656" width="493.03759765625" height="131" transform="matrix(1 0 0 1 -1166 -2478)"/></g><g><path fill="none" stroke="#000000" paint-order="fill stroke markers" d=" M 1307 178 L 1800.03759765625 178 L 1800.03759765625 309 L 1307 309 L 1307 178 Z Z" stroke-miterlimit="10" stroke-dasharray=""/></g><g><path fill="none" stroke="#000000" paint-order="fill stroke markers" d=" M 1307 218 L 1800.03759765625 218" stroke-miterlimit="10" stroke-dasharray=""/></g><g><path fill="none" stroke="#000000" paint-order="fill stroke markers" d=" M 1307 241 L 1800.03759765625 241" stroke-miterlimit="10" stroke-dasharray=""/></g><g><g><path fill="none" stroke="none"/><text fill="#000000" stroke="none" font-family="Arial" font-size="13px" font-style="normal" font-weight="bold" text-decoration="undefined" x="2720.018798828125" y="2669.5" text-anchor="middle" dominant-baseline="central" transform="matrix(1 0 0 1 -1166 -2478)">FileReaderService</text></g></g><g><g><path fill="none" stroke="none"/><text fill="#000000" stroke="none" font-family="Arial" font-size="13px" font-style="normal" font-weight="normal" text-decoration="undefined" x="2720.018798828125" y="2684.5" text-anchor="middle" dominant-baseline="central" transform="matrix(1 0 0 1 -1166 -2478)">(from Infrastructure)</text></g></g><g><g><path fill="none" stroke="none"/><text fill="#000000" stroke="none" font-family="Arial" font-size="13px" font-style="normal" font-weight="normal" text-decoration="undefined" x="2478" y="2707.5" text-anchor="start" dominant-baseline="central" transform="matrix(1 0 0 1 -1166 -2478)">-defaultIgnorePatterns: string[]</text></g></g><g><g><path fill="none" stroke="none"/><text fill="#000000" stroke="none" font-family="Arial" font-size="13px" font-style="normal" font-weight="normal" text-decoration="undefined" x="2478" y="2730.5" text-anchor="start" dominant-baseline="central" transform="matrix(1 0 0 1 -1166 -2478)">-convertToGlobPattern(pattern: string): string</text></g></g><g><g><path fill="none" stroke="none"/><text fill="#000000" stroke="none" font-family="Arial" font-size="13px" font-style="normal" font-weight="normal" text-decoration="undefined" x="2478" y="2745.5" text-anchor="start" dominant-baseline="central" transform="matrix(1 0 0 1 -1166 -2478)">+getIgnorePatterns(): Promise&lt;string[]&gt;</text></g></g><g><g><path fill="none" stroke="none"/><text fill="#000000" stroke="none" font-family="Arial" font-size="13px" font-style="normal" font-weight="normal" text-decoration="undefined" x="2478" y="2760.5" text-anchor="start" dominant-baseline="central" transform="matrix(1 0 0 1 -1166 -2478)">+getFilesContent(pattern: string, exclude?: string): Promise&lt;Record&lt;string, string&gt;&gt;</text></g></g><g><g><path fill="none" stroke="none"/><text fill="#000000" stroke="none" font-family="Arial" font-size="13px" font-style="normal" font-weight="normal" text-decoration="undefined" x="2478" y="2775.5" text-anchor="start" dominant-baseline="central" transform="matrix(1 0 0 1 -1166 -2478)">+getAllCFiles(): Promise&lt;Record&lt;string, string&gt;&gt;</text></g></g><g><rect fill="#C0C0C0" stroke="none" x="1207" y="2670" width="551.52490234375" height="118" transform="matrix(1 0 0 1 -1166 -2478)" fill-opacity="0.2"/></g><g><rect fill="#ffffff" stroke="none" x="1200" y="2663" width="551.52490234375" height="118" transform="matrix(1 0 0 1 -1166 -2478)"/></g><g><path fill="none" stroke="#000000" paint-order="fill stroke markers" d=" M 34 185 L 585.52490234375 185 L 585.52490234375 303 L 34 303 L 34 185 Z Z" stroke-miterlimit="10" stroke-dasharray=""/></g><g><path fill="none" stroke="#000000" paint-order="fill stroke markers" d=" M 34 225 L 585.52490234375 225" stroke-miterlimit="10" stroke-dasharray=""/></g><g><path fill="none" stroke="#000000" paint-order="fill stroke markers" d=" M 34 235 L 585.52490234375 235" stroke-miterlimit="10" stroke-dasharray=""/></g><g><g><path fill="none" stroke="none"/><text fill="#000000" stroke="none" font-family="Arial" font-size="13px" font-style="normal" font-weight="bold" text-decoration="undefined" x="1476.262451171875" y="2676.5" text-anchor="middle" dominant-baseline="central" transform="matrix(1 0 0 1 -1166 -2478)">CsvService</text></g></g><g><g><path fill="none" stroke="none"/><text fill="#000000" stroke="none" font-family="Arial" font-size="13px" font-style="normal" font-weight="normal" text-decoration="undefined" x="1476.262451171875" y="2691.5" text-anchor="middle" dominant-baseline="central" transform="matrix(1 0 0 1 -1166 -2478)">(from Infrastructure)</text></g></g><g><g><path fill="none" stroke="none"/><text fill="#000000" stroke="none" font-family="Arial" font-size="13px" font-style="normal" font-weight="normal" text-decoration="undefined" x="1205" y="2724.5" text-anchor="start" dominant-baseline="central" transform="matrix(1 0 0 1 -1166 -2478)">-formatTraceability(traceability: Traceability[]): { file: string, range: string }</text></g></g><g><g><path fill="none" stroke="none"/><text fill="#000000" stroke="none" font-family="Arial" font-size="13px" font-style="normal" font-weight="normal" text-decoration="undefined" x="1205" y="2739.5" text-anchor="start" dominant-baseline="central" transform="matrix(1 0 0 1 -1166 -2478)">+exportToCsv(analyzedRequirements: any, allRequirements: any): Promise&lt;void&gt;</text></g></g><g><g><path fill="none" stroke="none"/><text fill="#000000" stroke="none" font-family="Arial" font-size="13px" font-style="normal" font-weight="normal" text-decoration="undefined" x="1205" y="2754.5" text-anchor="start" dominant-baseline="central" transform="matrix(1 0 0 1 -1166 -2478)">+parseCSVData(data: string): (ParsedRequirement | AnalyzedRequirement)[]</text></g></g><g><g><path fill="none" stroke="none"/><text fill="#000000" stroke="none" font-family="Arial" font-size="13px" font-style="normal" font-weight="normal" text-decoration="undefined" x="1205" y="2769.5" text-anchor="start" dominant-baseline="central" transform="matrix(1 0 0 1 -1166 -2478)">+importFromCsv(filePath: string): Promise&lt;{requirements, numRequirements, numAnalyzed}&gt;</text></g></g></g></svg>